<?xml version="1.0" encoding="UTF-8" standalone="no"?>
<!-- Created with Inkscape (http://www.inkscape.org/) -->

<svg
   xmlns:dc="http://purl.org/dc/elements/1.1/"
   xmlns:cc="http://creativecommons.org/ns#"
   xmlns:rdf="http://www.w3.org/1999/02/22-rdf-syntax-ns#"
   xmlns:svg="http://www.w3.org/2000/svg"
   xmlns="http://www.w3.org/2000/svg"
   version="1.1"
   width="83.656731"
   height="89.853516"
   id="svg1">
  <metadata
     id="metadata3">
    <rdf:RDF>
      <cc:Work
         rdf:about="">
        <dc:title></dc:title>
        <dc:description />
        <dc:subject>
          <rdf:Bag>
            <rdf:li />
            <rdf:li>game</rdf:li>
            <rdf:li>chess</rdf:li>
            <rdf:li>symbols</rdf:li>
            <rdf:li>board</rdf:li>
            <rdf:li>recreation</rdf:li>
            <rdf:li>fonts</rdf:li>
          </rdf:Bag>
        </dc:subject>
        <dc:publisher>
          <cc:Agent
             rdf:about="http://www.openclipart.org">
            <dc:title>Igor Krizanovskij</dc:title>
          </cc:Agent>
        </dc:publisher>
        <dc:creator>
          <cc:Agent>
            <dc:title>Igor Krizanovskij</dc:title>
          </cc:Agent>
        </dc:creator>
        <dc:rights>
          <cc:Agent>
            <dc:title>Igor Krizanovskij</dc:title>
          </cc:Agent>
        </dc:rights>
        <dc:date />
        <dc:format>image/svg+xml</dc:format>
        <dc:type
           rdf:resource="http://purl.org/dc/dcmitype/StillImage" />
        <cc:license
           rdf:resource="http://web.resource.org/cc/PublicDomain" />
        <dc:language>en</dc:language>
      </cc:Work>
      <cc:License
         rdf:about="http://web.resource.org/cc/PublicDomain">
        <cc:permits
           rdf:resource="http://web.resource.org/cc/Reproduction" />
        <cc:permits
           rdf:resource="http://web.resource.org/cc/Distribution" />
        <cc:permits
           rdf:resource="http://web.resource.org/cc/DerivativeWorks" />
      </cc:License>
    </rdf:RDF>
  </metadata>
  <defs
     id="defs3" />
  <g
     transform="translate(-569.89155,-70.340083)"
     id="layer1">
    <path
       d="m 605.39403,126.49854 c -4.38951,0 -6.58422,0.68853 -6.5841,2.0656 -1.2e-4,1.20492 1.93639,1.9365 5.80949,2.19469 l 7.10051,0 c 8.60652,0 12.90986,-0.73158 12.90998,-2.19469 -1.2e-4,-1.37707 -2.19481,-2.0656 -6.58409,-2.0656 l -12.65179,0 m 0,-8.00421 c -3.78704,0 -5.89568,0.43035 -6.3259,1.291 -0.17224,0.17215 -0.25832,0.43034 -0.2582,0.77461 -1.2e-4,0.94673 0.90359,1.50616 2.71108,1.6783 2.23765,0.25819 5.63727,0.3873 10.19892,0.3873 4.56142,0 8.00407,-0.12911 10.32797,-0.3873 1.72123,-0.17214 2.58189,-0.73157 2.58201,-1.6783 -1.2e-4,-1.37707 -2.19481,-2.06561 -6.58409,-2.06561 l -12.65179,0 m 24.01257,5.55129 2.58199,9.9407 c -1e-4,3.01234 -3.05547,4.7767 -9.16609,5.29309 4.47536,1.72134 8.6496,2.58202 12.52269,2.58202 0.51631,0 3.05526,-0.12911 7.61689,-0.38731 3.78684,0 6.88523,1.97954 9.2952,5.93861 0.34416,0.68852 0.77451,1.46311 1.291,2.32379 l -4.64759,7.10048 c -1.37718,1.72134 -2.84031,2.84021 -4.38939,3.3566 -0.34439,-1.80738 -3.09851,-2.92625 -8.26239,-3.3566 l -3.09841,-0.25819 c -10.5863,-0.86066 -17.72984,-3.14142 -21.43057,-6.84229 -3.35671,3.52872 -8.47768,5.55129 -15.3629,6.06768 -1.5492,0.17215 -3.57176,0.43034 -6.0677,0.77461 -6.28287,0.51639 -9.9407,1.4201 -10.97348,2.7111 -0.17214,0.25819 -0.30125,0.55943 -0.38731,0.90369 -2.23771,-0.94673 -4.34636,-3.0984 -6.32589,-6.45498 -0.77461,-1.37707 -1.6783,-2.7111 -2.7111,-4.0021 2.3238,-4.30333 4.81972,-6.88532 7.48778,-7.746 0.94676,-0.34427 1.97954,-0.5164 3.09841,-0.5164 0,0 2.53896,0.12909 7.6169,0.38731 3.95905,0 8.13328,-0.86068 12.52268,-2.58202 -6.11072,-0.51639 -9.16608,-2.28075 -9.16608,-5.29309 0,-0.25819 0.68853,-2.45288 2.0656,-6.58409 0.43032,-1.37707 0.6455,-2.32381 0.6455,-2.8402 -5.25007,-6.36892 -7.87509,-12.00629 -7.87509,-16.91208 0,-5.6804 2.79715,-10.844387 8.39148,-15.491977 4.99176,-4.21729 8.60656,-6.45501 10.84439,-6.7132 -1.89357,-2.3238 -2.8403,-4.73368 -2.8402,-7.2296 -10e-5,-4.04513 2.02247,-6.54105 6.06771,-7.4878 0.94662,-0.2581 1.93639,-0.38718 2.9693,-0.38729 4.3032,1.1e-4 7.10037,1.59224 8.39147,4.77669 l 0.6455,2.7111 0,0.3873 c -10e-5,2.40986 -0.94684,4.81972 -2.84019,7.2296 1.63516,0.43033 4.08805,1.76437 7.3587,4.0021 7.91802,5.50824 11.87709,11.575947 11.87719,18.203077 -10e-5,4.99186 -2.58212,10.45708 -7.746,16.39567 m -15.36288,-12.00627 0,-5.93859 4.51849,0 0,-4.90582 -4.51849,0 0,-5.551287 -4.64759,0 0,5.551287 -4.51851,0 0,4.90582 4.51851,0 0,5.93859 4.64759,0 m -2.32379,-36.406167 c -1.72145,0 -2.79729,0.77458 -3.22752,2.3238 l -0.12908,0.77458 c -1.1e-4,1.63527 0.86055,2.66807 2.58199,3.09841 0.25809,0.08607 0.51629,0.12909 0.77461,0.12909 2.15154,0 3.22738,-1.07582 3.22749,-3.2275 -1.1e-4,-2.0656 -1.07595,-3.09838 -3.22749,-3.09838"
       id="path1731"
       style="font-size:12px;font-style:normal;font-weight:normal;fill:#000000;fill-opacity:1;stroke:none;font-family:Bitstream Vera Sans" />
  </g>
</svg>
