<?xml version="1.0" encoding="UTF-8" standalone="no"?>
<!-- Created with Inkscape (http://www.inkscape.org/) -->

<svg
   xmlns:dc="http://purl.org/dc/elements/1.1/"
   xmlns:cc="http://creativecommons.org/ns#"
   xmlns:rdf="http://www.w3.org/1999/02/22-rdf-syntax-ns#"
   xmlns:svg="http://www.w3.org/2000/svg"
   xmlns="http://www.w3.org/2000/svg"
   version="1.1"
   width="77.589058"
   height="76.039841"
   id="svg1">
  <metadata
     id="metadata3">
    <rdf:RDF>
      <cc:Work
         rdf:about="">
        <dc:title></dc:title>
        <dc:description />
        <dc:subject>
          <rdf:Bag>
            <rdf:li />
            <rdf:li>game</rdf:li>
            <rdf:li>chess</rdf:li>
            <rdf:li>symbols</rdf:li>
            <rdf:li>board</rdf:li>
            <rdf:li>recreation</rdf:li>
            <rdf:li>fonts</rdf:li>
          </rdf:Bag>
        </dc:subject>
        <dc:publisher>
          <cc:Agent
             rdf:about="http://www.openclipart.org">
            <dc:title>Igor Krizanovskij</dc:title>
          </cc:Agent>
        </dc:publisher>
        <dc:creator>
          <cc:Agent>
            <dc:title>Igor Krizanovskij</dc:title>
          </cc:Agent>
        </dc:creator>
        <dc:rights>
          <cc:Agent>
            <dc:title>Igor Krizanovskij</dc:title>
          </cc:Agent>
        </dc:rights>
        <dc:date />
        <dc:format>image/svg+xml</dc:format>
        <dc:type
           rdf:resource="http://purl.org/dc/dcmitype/StillImage" />
        <cc:license
           rdf:resource="http://web.resource.org/cc/PublicDomain" />
        <dc:language>en</dc:language>
      </cc:Work>
      <cc:License
         rdf:about="http://web.resource.org/cc/PublicDomain">
        <cc:permits
           rdf:resource="http://web.resource.org/cc/Reproduction" />
        <cc:permits
           rdf:resource="http://web.resource.org/cc/Distribution" />
        <cc:permits
           rdf:resource="http://web.resource.org/cc/DerivativeWorks" />
      </cc:License>
    </rdf:RDF>
  </metadata>
  <defs
     id="defs3" />
  <g
     transform="translate(-740.92061,-80.280773)"
     id="layer1">
    <path
       d="m 758.73642,110.36105 c 2.15165,0 4.43242,-1.24798 6.84228,-3.7439 1.291,-1.29099 1.9365,-2.40987 1.9365,-3.3566 0,-1.11888 -1.0328,-1.67831 -3.0984,-1.67831 -2.40985,0 -4.43242,1.07584 -6.06768,3.2275 -0.86069,1.03281 -1.291,2.10864 -1.291,3.22752 0,1.54919 0.55942,2.32379 1.6783,2.32379 m -2.19471,-28.272877 c 0.17214,0 0.60246,-0.04304 1.291,-0.12911 3.87301,0 8.00419,1.29102 12.39359,3.87301 0.51639,0.34427 0.77461,0.51639 0.77461,0.51639 2.49592,-4.04513 4.38938,-6.06769 5.68038,-6.06769 2.75413,1.5492 4.56155,3.2275 5.4222,5.03489 0.43034,0.86068 1.07584,2.66806 1.9365,5.4222 0.68853,-0.17215 1.37706,-0.25819 2.0656,-0.25819 7.22959,0 14.11491,4.43242 20.65599,13.297287 7.83206,10.24193 11.74809,24.18469 11.74809,41.82835 0,3.95907 -0.17213,7.53082 -0.51639,10.7153 l -54.48018,0 c 0.17215,-5.76647 2.28076,-11.23169 6.3259,-16.3957 0.43034,-0.68853 1.0328,-1.46312 1.8074,-2.32379 3.18447,-4.04512 5.12096,-7.14352 5.8095,-9.2952 0.34426,-1.11885 0.60246,-2.28076 0.7746,-3.48569 -5.6804,2.23773 -9.9407,5.5513 -12.7809,9.9407 -1.291,2.15165 -2.71108,4.3894 -4.2603,6.71319 -0.43034,0.68854 -1.07584,1.03281 -1.93649,1.03281 -2.15166,0 -3.22749,-1.33403 -3.22749,-4.0021 -0.86069,1.11886 -1.85045,1.6783 -2.9693,1.6783 0,0 -0.86068,-0.21518 -2.582,-0.6455 -3.70086,-0.94675 -6.32589,-2.58201 -7.87511,-4.90581 -0.51639,-0.77459 -1.07582,-1.80739 -1.6783,-3.09838 0.60248,-3.70088 3.57178,-11.05957 8.90791,-22.0761 3.873,-7.91813 6.28287,-13.598527 7.2296,-17.041177 0.0861,-0.7746 0.12909,-1.89345 0.12909,-3.3566 0,-1.20493 -0.21517,-3.52872 -0.6455,-6.97139 m -7.74599,45.314057 c -2.0656,0 -3.44267,0.90369 -4.1312,2.7111 -0.17213,0.43033 -0.2582,0.86066 -0.2582,1.291 0,0.34426 0.12909,0.7746 0.3873,1.29099 2.23773,0 3.6148,-0.94673 4.13119,-2.84018 0.0861,-0.2582 0.12911,-0.55945 0.12911,-0.9037 0,-0.17214 -0.0861,-0.68853 -0.2582,-1.54921 m 63.38804,19.88139 0,-4.77669 c 0,-14.02887 -3.57175,-25.51875 -10.71527,-34.46967 -6.19682,-7.74601 -11.83418,-11.618997 -16.91209,-11.618997 0,0 -0.51641,-0.08607 -1.54921,-0.2582 -0.17213,0.08606 -0.30124,0.17213 -0.38731,0.2582 -1.11885,0 -1.67828,0.47336 -1.67828,1.42008 0,0.34428 0.2582,0.77461 0.77459,1.29102 4.64759,0.43032 9.72553,3.743877 15.23379,9.940697 6.97139,8.09024 10.4571,19.79531 10.4571,35.11514 0,0 0,0.25822 0,0.77461 0,3.78694 0.81762,5.68041 2.45288,5.68041 1.37708,0 2.15169,-1.11888 2.3238,-3.3566"
       id="path1726"
       style="font-size:12px;font-style:normal;font-weight:normal;fill:#000000;fill-opacity:1;stroke:none;font-family:Bitstream Vera Sans" />
  </g>
</svg>
