<?xml version="1.0" encoding="UTF-8" standalone="no"?>
<!-- Created with Inkscape (http://www.inkscape.org/) -->

<svg
   xmlns:dc="http://purl.org/dc/elements/1.1/"
   xmlns:cc="http://creativecommons.org/ns#"
   xmlns:rdf="http://www.w3.org/1999/02/22-rdf-syntax-ns#"
   xmlns:svg="http://www.w3.org/2000/svg"
   xmlns="http://www.w3.org/2000/svg"
   version="1.1"
   width="78.36364"
   height="84.689529"
   id="svg1">
  <metadata
     id="metadata3092">
    <rdf:RDF>
      <cc:Work
         rdf:about="">
        <dc:title></dc:title>
        <dc:description />
        <dc:subject>
          <rdf:Bag>
            <rdf:li />
            <rdf:li>game</rdf:li>
            <rdf:li>chess</rdf:li>
            <rdf:li>symbols</rdf:li>
            <rdf:li>board</rdf:li>
            <rdf:li>recreation</rdf:li>
            <rdf:li>fonts</rdf:li>
          </rdf:Bag>
        </dc:subject>
        <dc:publisher>
          <cc:Agent
             rdf:about="http://www.openclipart.org">
            <dc:title>Igor Krizanovskij</dc:title>
          </cc:Agent>
        </dc:publisher>
        <dc:creator>
          <cc:Agent>
            <dc:title>Igor Krizanovskij</dc:title>
          </cc:Agent>
        </dc:creator>
        <dc:rights>
          <cc:Agent>
            <dc:title>Igor Krizanovskij</dc:title>
          </cc:Agent>
        </dc:rights>
        <dc:date />
        <dc:format>image/svg+xml</dc:format>
        <dc:type
           rdf:resource="http://purl.org/dc/dcmitype/StillImage" />
        <cc:license
           rdf:resource="http://web.resource.org/cc/PublicDomain" />
        <dc:language>en</dc:language>
      </cc:Work>
      <cc:License
         rdf:about="http://web.resource.org/cc/PublicDomain">
        <cc:permits
           rdf:resource="http://web.resource.org/cc/Reproduction" />
        <cc:permits
           rdf:resource="http://web.resource.org/cc/Distribution" />
        <cc:permits
           rdf:resource="http://web.resource.org/cc/DerivativeWorks" />
      </cc:License>
    </rdf:RDF>
  </metadata>
  <defs
     id="defs3" />
  <g
     transform="translate(-69.068607,-71.631083)"
     id="layer1">
    <path
       d="m 111.54247,124.04562 c 0,1.54922 -1.07583,2.32381 -3.22749,2.32381 -2.40987,0 -3.6148,-0.77459 -3.6148,-2.32381 0,-7.14352 -2.36684,-12.95302 -7.100493,-17.42847 -4.217264,-3.78694 -8.305429,-5.6804 -12.264491,-5.6804 -5.852529,0 -9.510361,2.3238 -10.973493,6.9714 l -0.516399,3.4857 0,0.2582 c 0,3.44265 2.538964,8.21936 7.616894,14.33008 1.377065,1.54921 2.538964,2.75413 3.485698,3.61481 1.377064,1.11885 3.65783,1.67828 6.842295,1.67828 3.356595,0 8.778799,-0.6455 16.266579,-1.93649 7.57387,1.29099 13.0391,1.93649 16.39569,1.93649 3.27053,0 5.55129,-0.55943 6.84231,-1.67828 3.61479,-3.18448 6.62712,-7.05747 9.03697,-11.619 1.37708,-2.58201 2.06561,-4.69063 2.06561,-6.32589 0,-5.4222 -2.45291,-8.82184 -7.3587,-10.19889 -1.291,-0.34427 -2.66806,-0.51641 -4.13119,-0.51641 -3.95905,0 -8.00419,1.93649 -12.1354,5.80951 -4.81972,4.30333 -7.22959,10.06978 -7.22959,17.29936 m 28.01468,-12.39357 c 0,3.44265 -2.36682,7.48778 -7.1005,12.13538 l -3.35659,2.84022 -1.291,0.77458 c -1.63527,0.2582 -3.3566,0.3873 -5.16399,0.3873 -5.33613,0 -8.0042,-1.07584 -8.0042,-3.2275 0.17213,-6.62712 2.15167,-11.79113 5.9386,-15.49197 3.27052,-3.27055 6.62713,-4.90581 10.06978,-4.90581 4.3894,0 7.18658,1.59224 8.39149,4.7767 l 0.51641,2.7111 m -12.26448,32.79137 c 0,-2.23774 -6.3259,-3.3566 -18.97769,-3.3566 -3.44266,0 -6.49803,0.12909 -9.166092,0.3873 l -3.098402,0.2582 c -4.647595,0.60247 -6.971394,1.46312 -6.971394,2.58199 0,1.291 1.1619,1.9365 3.485696,1.9365 l 15.621092,-1.291 15.492,1.291 c 2.40984,0 3.61479,-0.60246 3.61479,-1.80739 m 7.22959,3.09839 c -0.17214,5.85254 -8.95093,8.7788 -26.33638,8.7788 -17.213322,0 -25.949084,-2.92626 -26.207283,-8.7788 -0.08607,-5.50826 -0.903698,-10.41405 -2.452898,-14.71738 -0.946732,-2.32379 -2.75413,-5.29309 -5.422196,-8.90789 -3.356596,-4.56154 -5.034896,-8.60666 -5.034896,-12.1354 0,-5.50826 2.366833,-9.76855 7.100495,-12.780887 2.668064,-1.72133 5.637361,-2.58199 8.907893,-2.58199 4.475462,0 8.735761,1.63527 12.780892,4.905787 0,-3.959057 0.387301,-6.670157 1.161901,-8.133277 0.602463,-1.63528 2.581992,-3.61482 5.938592,-5.93861 l 0,-2.9693 -5.293092,-3.2275 0,-4.6476 4.776692,0 1.5492,-4.77668 4.38939,0 1.6783,4.77668 4.64759,0 0,4.6476 -5.16399,3.2275 0,2.9693 c 3.27053,2.40986 5.29309,4.47546 6.06769,6.1968 l 0.9037,3.74388 c 0.0861,1.0328 0.17214,2.40988 0.2582,4.131207 4.04513,-3.270517 8.21937,-4.905787 12.52271,-4.905787 5.76645,0 10.24192,2.19469 13.42638,6.584087 1.80741,2.582 2.7111,5.50826 2.7111,8.77879 0,3.52874 -1.6783,7.61689 -5.0349,12.26448 l -2.9693,4.13122 c -3.18445,4.81972 -4.81971,11.27472 -4.90579,19.36497 M 76.814601,111.65205 c 0,-3.61479 1.807399,-5.93859 5.422195,-6.97139 1.0328,-0.34428 2.108634,-0.51641 3.227499,-0.51641 3.614797,0 7.057461,1.63526 10.327991,4.90581 3.700865,3.78692 5.637364,8.95092 5.809494,15.49197 0.0861,1.89347 -1.893465,2.96931 -5.938594,3.2275 -0.602463,0 -1.247964,0 -1.936499,0 -1.721331,0 -3.485695,-0.1291 -5.293095,-0.3873 -2.840197,-1.37707 -5.680395,-4.08815 -8.520592,-8.13329 -2.0656,-3.01233 -3.098399,-5.55129 -3.098399,-7.61689"
       id="text1061"
       style="font-size:12px;font-style:normal;font-weight:normal;fill:#000000;fill-opacity:1;stroke:none;font-family:Bitstream Vera Sans" />

  </g>
</svg>
