<?xml version="1.0" encoding="UTF-8" standalone="no"?>
<!-- Created with Inkscape (http://www.inkscape.org/) -->

<svg
   xmlns:dc="http://purl.org/dc/elements/1.1/"
   xmlns:cc="http://creativecommons.org/ns#"
   xmlns:rdf="http://www.w3.org/1999/02/22-rdf-syntax-ns#"
   xmlns:svg="http://www.w3.org/2000/svg"
   xmlns="http://www.w3.org/2000/svg"
   xmlns:sodipodi="http://sodipodi.sourceforge.net/DTD/sodipodi-0.dtd"
   xmlns:inkscape="http://www.inkscape.org/namespaces/inkscape"
   version="1.1"
   width="78.234558"
   height="84.947739"
   id="svg1"
   inkscape:version="0.48.5 r10040"
   sodipodi:docname="white_king.svg">
  <sodipodi:namedview
     pagecolor="#ffffff"
     bordercolor="#666666"
     borderopacity="1"
     objecttolerance="10"
     gridtolerance="10"
     guidetolerance="10"
     inkscape:pageopacity="0"
     inkscape:pageshadow="2"
     inkscape:window-width="1099"
     inkscape:window-height="899"
     id="namedview18"
     showgrid="false"
     inkscape:zoom="2.7781787"
     inkscape:cx="39.117279"
     inkscape:cy="42.473869"
     inkscape:window-x="0"
     inkscape:window-y="22"
     inkscape:window-maximized="0"
     inkscape:current-layer="svg1" />
  <metadata
     id="metadata3">
    <rdf:RDF>
      <cc:Work
         rdf:about="">
        <dc:title />
        <dc:description />
        <dc:subject>
          <rdf:Bag>
            <rdf:li />
            <rdf:li>game</rdf:li>
            <rdf:li>chess</rdf:li>
            <rdf:li>symbols</rdf:li>
            <rdf:li>board</rdf:li>
            <rdf:li>recreation</rdf:li>
            <rdf:li>fonts</rdf:li>
          </rdf:Bag>
        </dc:subject>
        <dc:publisher>
          <cc:Agent
             rdf:about="http://www.openclipart.org">
            <dc:title>Igor Krizanovskij</dc:title>
          </cc:Agent>
        </dc:publisher>
        <dc:creator>
          <cc:Agent>
            <dc:title>Igor Krizanovskij</dc:title>
          </cc:Agent>
        </dc:creator>
        <dc:rights>
          <cc:Agent>
            <dc:title>Igor Krizanovskij</dc:title>
          </cc:Agent>
        </dc:rights>
        <dc:date />
        <dc:format>image/svg+xml</dc:format>
        <dc:type
           rdf:resource="http://purl.org/dc/dcmitype/StillImage" />
        <cc:license
           rdf:resource="http://web.resource.org/cc/PublicDomain" />
        <dc:language>en</dc:language>
      </cc:Work>
      <cc:License
         rdf:about="http://web.resource.org/cc/PublicDomain">
        <cc:permits
           rdf:resource="http://web.resource.org/cc/Reproduction" />
        <cc:permits
           rdf:resource="http://web.resource.org/cc/Distribution" />
        <cc:permits
           rdf:resource="http://web.resource.org/cc/DerivativeWorks" />
      </cc:License>
    </rdf:RDF>
  </metadata>
  <defs
     id="defs3" />
  <g
     transform="translate(-70.539484,-214.20189)"
     id="layer1">
    <path
       d="m 109.65676,299.14963 c -17.12725,0 -25.819982,-2.88321 -26.078178,-8.64969 -0.430339,-7.91812 -1.764372,-13.89975 -4.002098,-17.94489 -0.94673,-1.63526 -2.280763,-3.61479 -4.002099,-5.93859 -2.926261,-3.87299 -4.561526,-7.14352 -4.905793,-9.81159 -0.08607,-0.68853 -0.129108,-1.42011 -0.129108,-2.19471 0,-5.42218 2.280763,-9.68247 6.842288,-12.78088 1.118874,-0.68854 2.280763,-1.24797 3.485709,-1.6783 4.561524,-1.63527 9.080014,-1.37707 13.555488,0.77461 1.63526,0.77458 3.270524,1.80738 4.905788,3.09838 l 0.12911,0.12911 c 0,-1.80741 0.08605,-3.7439 0.2582,-5.80948 0,-0.60249 0.301223,-1.42011 0.903693,-2.45292 1.37707,-2.23772 3.01233,-4.0021 4.90579,-5.29309 0.34426,-0.17214 0.68853,-0.38731 1.0328,-0.6455 l 0,-3.0984 -5.29309,-3.09839 0,-4.64759 4.7767,0 1.6783,-4.90582 3.87299,0 1.6783,4.90582 4.7767,0 0,4.64759 -5.29309,3.09839 0,3.0984 c 4.47546,2.84019 6.75622,5.68039 6.84228,8.52059 0.17213,1.72133 0.2582,3.6148 0.2582,5.6804 l 0.12911,-0.12911 c 5.42219,-4.56153 11.10259,-6.02465 17.04118,-4.38938 1.54921,0.43031 3.01234,1.07581 4.3894,1.9365 4.81972,2.92625 7.27263,7.27262 7.35871,13.03907 0,3.44268 -1.72134,7.53084 -5.16401,12.26449 -2.8402,3.95906 -4.60456,6.84231 -5.2931,8.6497 -1.46311,3.87298 -2.3238,8.86485 -2.58199,14.97559 -0.17212,5.76648 -8.86486,8.64969 -26.07818,8.64969 m 0,-43.50667 3.7439,-5.93859 c 0.60247,-1.291 1.07582,-2.49593 1.42008,-3.6148 0.17215,-0.60246 0.25822,-1.85042 0.25822,-3.7439 0,-5.07791 -1.76437,-7.6169 -5.29312,-7.6169 -3.70085,0 -5.55129,2.53899 -5.55129,7.6169 0,1.89348 0.0861,3.14144 0.2582,3.7439 0.68853,2.3238 2.15167,5.07794 4.3894,8.26239 0.51641,0.60247 0.77461,1.0328 0.77461,1.291 m 34.46968,-0.2582 c 0,-3.87299 -1.29099,-6.84228 -3.87302,-8.90788 -2.15165,-1.80741 -4.6906,-2.7111 -7.61689,-2.7111 -3.70084,0 -7.70295,1.89345 -12.00628,5.68039 -5.07793,4.3894 -7.96116,10.328 -8.6497,17.81579 0,0.60246 1.59223,1.29099 4.77669,2.0656 3.70087,0.68854 9.98373,1.0328 18.84859,1.0328 l 5.8095,-7.746 c 1.8074,-2.75412 2.71111,-5.16399 2.71111,-7.2296 m -34.46968,17.42849 c -2.15168,0.94675 -8.69274,1.76437 -19.623193,2.4529 -1.635264,0.0861 -2.969298,0.17213 -4.002099,0.2582 0.860679,3.27053 1.420106,6.88532 1.678301,10.84439 5.938593,-1.89347 13.254251,-2.84019 21.946991,-2.84019 8.86485,0 16.18052,0.94672 21.94699,2.84019 0.2582,-4.30333 0.81763,-7.91813 1.6783,-10.84439 l -19.10681,-1.5492 c -1.63526,-0.25819 -3.14142,-0.64549 -4.51848,-1.1619 M 75.187082,255.38476 c 0,2.66808 2.108639,6.71321 6.325897,12.13539 1.032801,1.291 1.764372,2.23775 2.194691,2.84021 l 2.323798,0 c 8.86486,0 15.319862,-0.60246 19.364992,-1.80741 1.291,-0.34426 1.9365,-0.77458 1.9365,-1.29099 -0.68854,-7.48779 -3.57177,-13.42639 -8.649693,-17.81579 -4.217262,-3.78694 -8.21936,-5.68039 -12.006301,-5.68039 -1.204924,0 -2.495922,0.25819 -3.872991,0.7746 -3.442672,0.86066 -5.76647,3.14142 -6.971395,6.84229 l -0.645498,3.4857 0,0.51639 m 34.469678,39.11728 c 8.09025,0 13.6846,-0.51641 16.78299,-1.54919 0.7746,-0.25822 1.1619,-0.55945 1.1619,-0.90372 0,-2.23773 -5.93859,-3.35659 -17.81581,-3.35659 -4.56152,0 -8.99394,0.30125 -13.297264,0.90371 -3.184481,0.51639 -4.776708,1.33403 -4.776708,2.45288 0,1.291 5.077935,2.10865 15.233792,2.45291 1.0328,0 1.93649,0 2.7111,0"
       id="path1721"
       style="font-size:12px;font-style:normal;font-weight:normal;fill:#000000;fill-opacity:1;stroke:none;font-family:Bitstream Vera Sans" />
  </g>
  <path
     style="fill:#ffffff;stroke:none"
     d="m 36.808594,37.243834 c -1.18961,-2.01208 -2.360892,-4.483536 -2.602849,-5.492124 -0.532004,-2.217644 -0.26398,-6.627558 0.491034,-8.079186 1.905876,-3.664334 6.692954,-3.944236 8.678257,-0.507421 0.534898,0.925977 0.756157,2.099309 0.864952,4.586827 0.166877,3.815501 -0.377821,5.634368 -2.942791,9.826646 -2.312002,3.778817 -2.044743,3.798748 -4.488603,-0.334742 z"
     id="path2995"
     inkscape:connector-curvature="0" />
  <path
     style="fill:#ffffff"
     d="m 36.808594,37.243834 c -1.18961,-2.01208 -2.360892,-4.483536 -2.602849,-5.492124 -0.532004,-2.217644 -0.26398,-6.627558 0.491034,-8.079186 1.905876,-3.664334 6.692954,-3.944236 8.678257,-0.507421 0.534898,0.925977 0.756157,2.099309 0.864952,4.586827 0.166877,3.815501 -0.377821,5.634368 -2.942791,9.826646 -2.312002,3.778817 -2.044743,3.798748 -4.488603,-0.334742 z"
     id="path2997"
     inkscape:connector-curvature="0" />
  <path
     style="fill:#ffffff"
     d="m 51.334826,55.532171 c -4.304967,-0.329947 -9.144086,-1.567023 -9.471947,-2.421417 -0.332786,-0.867226 0.570668,-5.341836 1.600781,-7.928319 1.987868,-4.991282 5.466689,-9.189371 10.240655,-12.357972 3.11321,-2.066315 5.508934,-2.894163 8.413644,-2.907353 8.375026,-0.03803 13.616851,8.096106 10.04032,15.580323 -0.614938,1.286814 -2.468608,4.161899 -4.119267,6.389078 l -3.001197,4.049415 -4.879434,-0.05073 c -2.683689,-0.0279 -6.654288,-0.186764 -8.823555,-0.353023 z"
     id="path2999"
     inkscape:connector-curvature="0" />
  <path
     style="fill:#ffffff"
     d="M 10.501964,52.300587 C 7.6324241,48.410708 5.2851037,44.106284 4.9680962,42.152796 4.6878225,40.425672 5.5187303,36.838221 6.6436069,34.918764 8.7369416,31.346758 13.637089,29.221647 17.975216,30.004436 c 4.88118,0.88078 11.935141,6.185611 14.891659,11.199061 1.528241,2.591481 2.983716,6.724371 3.45407,9.807996 0.293926,1.92697 0.258093,2.134782 -0.447859,2.59734 -1.868812,1.224492 -10.652399,2.328531 -18.388684,2.311335 l -4.319377,-0.0096 -2.663061,-3.60998 0,-10e-7 z"
     id="path3001"
     inkscape:connector-curvature="0" />
  <path
     style="fill:#ffffff"
     d="m 17.131397,69.735471 c -0.127991,-1.155678 -0.465372,-3.29289 -0.749736,-4.749358 -0.284364,-1.456469 -0.517026,-2.849993 -0.517026,-3.096721 0,-0.318694 1.224723,-0.520131 4.22939,-0.695632 6.096527,-0.356096 14.322071,-1.248394 16.827571,-1.825437 1.853351,-0.426846 2.440497,-0.424148 4.139402,0.01902 1.088843,0.284031 6.36482,0.869099 11.724394,1.30015 l 9.744679,0.78373 -0.465042,2.012966 c -0.255772,1.107132 -0.615112,3.35434 -0.798534,4.993795 -0.183419,1.639455 -0.413408,3.060742 -0.51108,3.158414 -0.09767,0.09767 -1.126867,-0.0678 -2.287106,-0.367714 -4.58153,-1.184303 -9.18679,-1.721514 -16.395725,-1.912589 -9.620923,-0.255006 -16.768666,0.416483 -23.748459,2.231031 -0.942078,0.244913 -0.964366,0.210312 -1.192728,-1.851656 z"
     id="path3003"
     inkscape:connector-curvature="0" />
  <path
     style="fill:#ffffff"
     d="m 28.642791,79.674324 c -5.999356,-0.60643 -8.065176,-1.408901 -6.732274,-2.61516 2.083244,-1.885311 15.763063,-2.953521 25.989494,-2.029431 4.762532,0.430356 7.529378,1.116151 8.404505,2.083155 0.848075,0.937114 0.315161,1.297511 -3.005284,2.032395 -3.209522,0.710334 -19.421628,1.058189 -24.656441,0.529041 z"
     id="path3005"
     inkscape:connector-curvature="0" />
</svg>
