<?xml version="1.0" encoding="UTF-8" standalone="no"?>
<!-- Created with Inkscape (http://www.inkscape.org/) -->

<svg
   xmlns:dc="http://purl.org/dc/elements/1.1/"
   xmlns:cc="http://creativecommons.org/ns#"
   xmlns:rdf="http://www.w3.org/1999/02/22-rdf-syntax-ns#"
   xmlns:svg="http://www.w3.org/2000/svg"
   xmlns="http://www.w3.org/2000/svg"
   xmlns:sodipodi="http://sodipodi.sourceforge.net/DTD/sodipodi-0.dtd"
   xmlns:inkscape="http://www.inkscape.org/namespaces/inkscape"
   version="1.1"
   width="89.466232"
   height="83.398521"
   id="svg1"
   inkscape:version="0.48.5 r10040"
   sodipodi:docname="white_queen.svg">
  <sodipodi:namedview
     pagecolor="#ffffff"
     bordercolor="#666666"
     borderopacity="1"
     objecttolerance="10"
     gridtolerance="10"
     guidetolerance="10"
     inkscape:pageopacity="0"
     inkscape:pageshadow="2"
     inkscape:window-width="1093"
     inkscape:window-height="722"
     id="namedview7"
     showgrid="false"
     inkscape:zoom="2.8297864"
     inkscape:cx="44.733116"
     inkscape:cy="41.699261"
     inkscape:window-x="0"
     inkscape:window-y="22"
     inkscape:window-maximized="0"
     inkscape:current-layer="svg1" />
  <metadata
     id="metadata3">
    <rdf:RDF>
      <cc:Work
         rdf:about="">
        <dc:title />
        <dc:description />
        <dc:subject>
          <rdf:Bag>
            <rdf:li />
            <rdf:li>game</rdf:li>
            <rdf:li>chess</rdf:li>
            <rdf:li>symbols</rdf:li>
            <rdf:li>board</rdf:li>
            <rdf:li>recreation</rdf:li>
            <rdf:li>fonts</rdf:li>
          </rdf:Bag>
        </dc:subject>
        <dc:publisher>
          <cc:Agent
             rdf:about="http://www.openclipart.org">
            <dc:title>Igor Krizanovskij</dc:title>
          </cc:Agent>
        </dc:publisher>
        <dc:creator>
          <cc:Agent>
            <dc:title>Igor Krizanovskij</dc:title>
          </cc:Agent>
        </dc:creator>
        <dc:rights>
          <cc:Agent>
            <dc:title>Igor Krizanovskij</dc:title>
          </cc:Agent>
        </dc:rights>
        <dc:date />
        <dc:format>image/svg+xml</dc:format>
        <dc:type
           rdf:resource="http://purl.org/dc/dcmitype/StillImage" />
        <cc:license
           rdf:resource="http://web.resource.org/cc/PublicDomain" />
        <dc:language>en</dc:language>
      </cc:Work>
      <cc:License
         rdf:about="http://web.resource.org/cc/PublicDomain">
        <cc:permits
           rdf:resource="http://web.resource.org/cc/Reproduction" />
        <cc:permits
           rdf:resource="http://web.resource.org/cc/Distribution" />
        <cc:permits
           rdf:resource="http://web.resource.org/cc/DerivativeWorks" />
      </cc:License>
    </rdf:RDF>
  </metadata>
  <defs
     id="defs3" />
  <g
     transform="translate(-232.78988,-215.75111)"
     id="layer1">
    <path
       d="m 274.61825,270.10217 5.6804,0 c 1.29089,0 2.84008,0.043 4.64759,0.12908 l 12.78089,0.77461 0.12911,0 c 1.54909,0 2.32367,-0.21518 2.32379,-0.6455 l 0,-0.51641 c -1.2e-4,-2.58199 -5.72353,-4.26029 -17.1703,-5.03488 -2.06571,-0.17215 -3.87309,-0.25821 -5.42218,-0.25821 -8.43464,0 -14.93256,0.86067 -19.49409,2.58201 -2.0656,0.77458 -3.0984,1.67828 -3.0984,2.71108 l 0,0.51641 c 0,0.43032 0.77461,0.6455 2.3238,0.6455 l 17.29939,-0.90369 m 23.88348,5.80948 c -6.79937,-0.86066 -13.77077,-1.291 -20.91418,-1.291 -7.48791,0 -14.45921,0.43034 -20.91419,1.291 1.0328,0.86066 1.54919,2.53896 1.54919,5.03491 0,1.63526 -0.25819,2.62502 -0.77458,2.96929 5.16398,-0.94673 11.87709,-1.4201 20.13958,-1.4201 8.26228,0 14.97547,0.47337 20.13958,1.4201 -0.51651,-0.34427 -0.77471,-1.33403 -0.77461,-2.96929 -10e-5,-2.49595 0.51631,-4.17425 1.54921,-5.03491 m -20.91418,11.10259 c -4.38951,0 -9.29531,0.21517 -14.7174,0.64551 -4.21726,0.34425 -6.3259,1.33404 -6.3259,2.9693 0,2.15165 7.01443,3.22749 21.0433,3.22749 14.02874,0 21.04317,-1.07584 21.04327,-3.22749 -1e-4,-0.68854 -0.55953,-1.33404 -1.6783,-1.93651 -3.27063,-1.11886 -9.72563,-1.6783 -19.36497,-1.6783 m 0,-67.51925 c -2.15179,0 -3.22762,1.0328 -3.22749,3.0984 -1.3e-4,2.23773 1.0757,3.3566 3.22749,3.3566 2.06548,0 3.09828,-1.11887 3.09838,-3.3566 -10e-5,-2.0656 -1.0329,-3.0984 -3.09838,-3.0984 m 0,-3.74388 c 3.09828,0 5.24995,1.42008 6.45498,4.26029 l 0.6455,2.58199 0,0.38731 c -1.1e-4,0.51639 -0.34437,1.59223 -1.0328,3.22749 -1.20503,3.52874 -1.80749,6.58409 -1.80739,9.16608 -1e-4,4.21728 0.94663,10.45711 2.84019,18.7195 4.64749,-9.81158 6.9713,-17.21332 6.9714,-22.20519 l -0.77459,-5.55129 c -1.3e-4,-3.01233 1.33391,-5.164 4.0021,-6.455 0.9466,-0.51639 1.9794,-0.77458 3.09838,-0.77458 3.0983,0 5.29299,1.37704 6.58409,4.13118 0.51631,1.0328 0.77451,2.0656 0.77461,3.0984 -10e-5,2.23773 -0.77471,4.0021 -2.3238,5.2931 -2.3239,2.3238 -3.52885,6.11072 -3.61479,11.36078 -1e-4,2.23775 0.21505,5.85254 0.6455,10.8444 5.59422,-5.76646 8.39137,-10.4571 8.39149,-14.07189 l -0.64549,-5.03491 c -1.3e-4,-2.84019 1.29087,-4.94882 3.87299,-6.32587 1.03269,-0.60248 2.10851,-0.90372 3.2275,-0.90372 2.92615,0 5.12084,1.33404 6.58408,4.0021 l 0.77461,2.45291 0,0.77458 c -10e-5,3.52875 -1.97964,6.19682 -5.93859,8.0042 -0.17225,3.70087 -1.59235,10.97349 -4.26029,21.81789 -0.17225,0.51641 -0.30136,0.98976 -0.38731,1.4201 -1.1e-4,1.20493 -1.37717,3.27053 -4.13121,6.19679 -3.70097,3.70087 -5.55139,6.58409 -5.55129,8.6497 -10e-5,0.94672 1.0327,3.48571 3.0984,7.61689 0.34418,0.77461 0.51629,1.93649 0.51639,3.48571 l 0,0.90369 c -0.0862,0.25819 -0.12921,0.55943 -0.12908,0.90369 l 0,0.12911 0.12908,0.12909 c -1e-4,3.0984 -8.30553,4.81974 -24.91628,5.164 -1.11895,0 -2.19479,0 -3.22749,0 l -5.42218,-0.1291 -0.12911,0 c -8.09037,-0.2582 -14.24403,-0.94673 -18.46128,-2.06561 -2.66807,-0.77458 -4.0021,-1.76434 -4.0021,-2.96929 0.0861,-0.0861 0.0861,-0.60246 0,-1.54919 -0.0861,-0.17213 -0.0861,-0.34427 0,-0.51639 0,-1.97954 0.6455,-4.2603 1.9365,-6.84231 1.0328,-2.06558 1.54919,-3.48568 1.54919,-4.26029 0,-1.37708 -0.73156,-3.01234 -2.19469,-4.9058 l -6.32591,-7.22959 c -0.68852,-0.94673 -1.0328,-1.85045 -1.0328,-2.7111 -2.66806,-10.93046 -4.17421,-18.03094 -4.51849,-21.30149 -0.0861,-0.68854 -0.1291,-1.33404 -0.1291,-1.9365 -3.95906,-1.80738 -5.93859,-4.47545 -5.93859,-8.0042 0,-2.84019 1.29099,-4.94882 3.87298,-6.32587 1.11887,-0.60248 2.23775,-0.90372 3.3566,-0.90372 3.01234,0 5.16401,1.37707 6.45502,4.13121 0.51639,0.94673 0.77458,1.97953 0.77458,3.09838 l -0.6455,5.03491 c 0,3.78693 2.75413,8.47756 8.26239,14.07189 0.43034,-3.78694 0.6455,-7.40173 0.6455,-10.8444 0,-4.73365 -0.55943,-7.8751 -1.67828,-9.42429 -0.43034,-0.60246 -1.07584,-1.29099 -1.93651,-2.0656 -1.5492,-1.0328 -2.3238,-2.75412 -2.3238,-5.16399 0,-3.01233 1.4201,-5.20702 4.26031,-6.58408 0.94673,-0.43035 1.97954,-0.6455 3.09838,-0.6455 3.01234,0 5.16401,1.37704 6.45501,4.13118 0.51628,0.94673 0.77448,1.97954 0.77458,3.0984 l -0.77458,5.42219 0,0.1291 c 0,4.90579 2.32367,12.30754 6.9714,22.20519 1.80728,-7.83205 2.71098,-14.0719 2.71108,-18.7195 -10e-5,-3.44265 -0.6456,-6.71318 -1.9365,-9.81158 -0.51649,-1.20493 -0.7747,-2.0656 -0.77458,-2.58199 -1.2e-4,-3.01234 1.37694,-5.16399 4.13118,-6.45501 0.94662,-0.51639 1.97942,-0.77458 3.09841,-0.77458 m 37.30987,15.87928 c -1.37718,0 -2.36694,0.68854 -2.9693,2.0656 -0.0862,0.34427 -0.12922,0.68852 -0.12911,1.03278 -1.1e-4,1.72134 0.77449,2.79718 2.3238,3.22752 0.25809,0.0861 0.51631,0.12909 0.77461,0.12909 2.15154,0 3.22738,-1.11886 3.22749,-3.35661 -1.1e-4,-2.06558 -1.07595,-3.09838 -3.22749,-3.09838 m -16.9121,-8.26239 c -1.46324,0 -2.453,0.73157 -2.96929,2.19469 l -0.12909,1.0328 c -1.2e-4,1.54919 0.73144,2.58199 2.19469,3.0984 0.25809,0.0861 0.55932,0.12909 0.90369,0.12909 2.23763,0 3.3565,-1.07582 3.3566,-3.22749 -1e-4,-2.15165 -1.11897,-3.22749 -3.3566,-3.22749 m -41.05377,0 c -2.15165,0 -3.22749,1.07584 -3.22749,3.22749 0,2.15167 1.07584,3.22749 3.22749,3.22749 2.06561,0 3.09841,-1.07582 3.09841,-3.22749 0,-2.15165 -1.0328,-3.22749 -3.09841,-3.22749 m -16.91209,8.26239 c -2.15165,0 -3.22749,1.0328 -3.22749,3.09838 0,2.23775 1.07584,3.35661 3.22749,3.35661 2.06561,0 3.09841,-1.11886 3.09841,-3.35661 0,-1.46311 -0.73157,-2.45288 -2.19469,-2.96929 -0.25822,-0.0861 -0.55944,-0.12909 -0.90372,-0.12909 m 37.56809,8.2624 c -1.20505,7.57385 -2.75425,13.03907 -4.6476,16.39567 l -1.93649,3.09841 0,0.12911 c -0.25832,-0.25822 -1.37718,-1.54922 -3.3566,-3.87302 -2.49605,-2.92626 -5.12098,-8.47755 -7.8751,-16.65387 0.17213,1.20492 0.2582,2.45289 0.2582,3.74388 0,4.04514 -0.73157,10.28497 -2.19471,18.7195 -4.64758,-2.75414 -9.16608,-7.14354 -13.55549,-13.16821 1.46314,7.40174 2.58202,12.2645 3.3566,14.5883 0.51641,1.72133 1.16191,2.7111 1.9365,2.96929 7.05746,-4.04511 16.39559,-6.06768 28.01469,-6.06768 11.70494,0 21.04317,2.02257 28.01466,6.06768 1.54909,-0.51639 3.27043,-6.36891 5.16401,-17.55759 -4.47557,6.19681 -8.95105,10.58622 -13.42639,13.16821 -1.46325,-7.48781 -2.1948,-13.38336 -2.19469,-17.68669 -1.1e-4,-1.11886 0.0859,-2.7111 0.25819,-4.77669 -1.72144,5.16399 -3.70097,9.76854 -5.93859,13.81368 -1.20505,1.80739 -2.53909,3.52873 -4.00211,5.16399 -0.68863,0.68853 -1.11897,1.20494 -1.29099,1.54922 l -2.84021,-5.03491 c -0.0862,-0.34426 -0.21526,-0.68853 -0.38728,-1.0328 -0.68864,-1.89346 -1.80751,-6.41196 -3.3566,-13.55548"
       id="path1715"
       style="font-size:12px;font-style:normal;font-weight:normal;fill:#000000;fill-opacity:1;stroke:none;font-family:Bitstream Vera Sans" />
  </g>
  <path
     style="fill:#ffffff"
     d="m 16.013641,49.03197 c -0.741735,-1.054008 -1.753626,-4.510343 -3.029647,-10.348425 -0.57468,-2.629287 -1.044873,-4.863385 -1.044873,-4.964661 0,-0.101276 0.823302,0.818009 1.829561,2.042856 2.572475,3.131291 6.812861,7.187763 9.240911,8.840115 1.132554,0.770733 2.10201,1.347329 2.154345,1.281325 0.235354,-0.296827 1.974894,-13.549683 2.187789,-16.667884 l 0.237096,-3.472684 1.478083,3.649376 c 2.523808,6.231266 4.261406,9.157131 7.938578,13.367423 l 1.08023,1.236843 0.698737,-0.883459 c 1.988085,-2.513668 4.457315,-9.171888 5.344009,-14.409996 0.221186,-1.306648 0.511182,-2.494844 0.644434,-2.640435 0.133253,-0.145592 0.602455,1.365123 1.042673,3.357143 0.440217,1.992021 1.189735,4.923482 1.665598,6.514358 0.883204,2.95268 3.317907,7.709005 3.946142,7.709005 0.472223,0 3.581193,-3.769218 5.190731,-6.293084 1.489088,-2.334988 2.973808,-5.505854 4.49511,-9.600047 0.575895,-1.549866 1.077689,-2.847649 1.115105,-2.883961 0.03741,-0.03631 0.08294,1.867851 0.101174,4.231474 0.02198,2.848827 0.366299,6.382168 1.021444,10.481707 0.543564,3.401317 1.033216,6.238216 1.088114,6.304221 0.0549,0.066 1.063487,-0.534407 2.241304,-1.334247 2.401061,-1.630529 7.591749,-6.710815 9.322382,-9.124103 1.459824,-2.035653 1.570168,-1.480092 0.6311,3.177506 -0.925497,4.590312 -2.391371,9.438122 -3.163351,10.46156 l -0.595473,0.789437 -3.114369,-1.459441 C 66.287581,46.76639 60.225826,45.114706 55.299412,44.453568 50.413867,43.797914 38.039857,43.89756 33.318827,44.630574 c -5.360495,0.832302 -9.976767,2.125481 -13.52811,3.789696 -1.651133,0.773747 -3.050541,1.406813 -3.109796,1.406813 -0.05926,0 -0.359531,-0.357801 -0.66728,-0.795113 z"
     id="path2984"
     inkscape:connector-curvature="0" />
  <path
     style="fill:#ffffff"
     d="m 6.0790436,21.88312 c -2.5163056,-0.7306 -2.5163056,-4.904097 0,-5.574947 1.3432714,-0.358118 2.8671921,0.121335 3.5686086,1.122747 1.0700038,1.527644 0.3658708,3.865274 -1.3438085,4.461271 C 7.7185476,22.096227 7.2236431,22.248823 7.2040561,22.231294 7.184468,22.213766 6.6782134,22.057086 6.0790436,21.88312 z"
     id="path2986"
     inkscape:connector-curvature="0" />
  <path
     style="fill:#ffffff"
     d="m 21.85951,12.850843 c -1.428598,-1.816167 -0.671305,-4.4474388 1.411665,-4.9049357 2.349876,-0.5161192 4.256564,1.4963019 3.662032,3.8651057 -0.522788,2.082953 -3.735289,2.741341 -5.073697,1.03983 z"
     id="path2988"
     inkscape:connector-curvature="0" />
  <path
     style="fill:#ffffff"
     d="m 42.962441,9.520836 c -0.855712,-0.498856 -1.373606,-2.6021 -0.944107,-3.8341614 0.648593,-1.860554 3.296519,-2.3806713 4.745132,-0.9320593 1.174023,1.1740241 1.198017,3.2927879 0.04951,4.3717577 -0.875848,0.8228169 -2.780973,1.017985 -3.850531,0.394463 l 0,0 z"
     id="path2990"
     inkscape:connector-curvature="0" />
  <path
     style="fill:#ffffff"
     d="m 63.395547,12.986846 c -1.344634,-1.209766 -1.36778,-3.032411 -0.05518,-4.3450115 2.299691,-2.2996905 5.827389,0.2361026 4.725551,3.3968375 -0.655544,1.880493 -3.085737,2.373869 -4.670371,0.948174 z"
     id="path2992"
     inkscape:connector-curvature="0" />
  <path
     style="fill:#ffffff"
     d="m 80.975621,21.753392 c -2.318325,-1.010752 -2.233637,-4.596985 0.127596,-5.403228 1.186506,-0.405132 2.932851,0.01342 3.544163,0.849437 0.692257,0.946718 0.543172,3.054931 -0.278394,3.936779 -0.396293,0.42537 -0.860355,0.773401 -1.031248,0.773401 -0.170894,0 -0.5225,0.07371 -0.781347,0.163806 -0.258848,0.09009 -0.970194,-0.05399 -1.58077,-0.320195 l 0,0 z"
     id="path2994"
     inkscape:connector-curvature="0" />
  <path
     style="fill:#ffffff"
     d="m 22.947587,54.815042 c -1.358967,-0.861215 0.744464,-2.786498 4.114769,-3.766272 4.316675,-1.254892 7.152756,-1.610129 14.384293,-1.801725 14.321256,-0.379434 25.620308,1.749914 25.620308,4.82824 0,1.013881 -0.994771,1.121337 -6.793756,0.733871 C 48.849179,54.045846 44.272054,54.003232 34.10144,54.565488 22.247021,55.220829 23.542178,55.191851 22.947587,54.815042 z"
     id="path2996"
     inkscape:connector-curvature="0" />
  <path
     style="fill:#ffffff"
     d="m 25.477051,66.220164 c 0.193953,-1.569989 -0.01386,-3.290946 -0.639845,-5.298696 -0.224023,-0.718521 -0.05879,-0.760114 4.8316,-1.216181 6.421538,-0.598859 24.677863,-0.548028 30.683864,0.08543 3.543476,0.373735 4.402307,0.570289 4.341525,0.993613 -0.04167,0.290243 -0.243654,1.322828 -0.448853,2.294632 -0.2052,0.971805 -0.26906,2.46446 -0.141916,3.317011 l 0.231173,1.550092 -1.195853,-0.221984 c -7.40555,-1.374678 -29.267435,-1.374154 -36.674591,8.79e-4 l -1.200536,0.222863 0.213432,-1.727663 0,0 z"
     id="path2998"
     inkscape:connector-curvature="0" />
  <path
     style="fill:#ffffff"
     d="M 37.55943,77.685817 C 26.330894,77.292385 21.860904,75.785331 25.014313,73.456241 c 1.257574,-0.928836 3.570784,-1.279168 11.541379,-1.747922 14.539761,-0.85509 28.098939,0.40913 28.978754,2.701899 0.998817,2.602873 -10.096574,3.902035 -27.975016,3.275599 z"
     id="path3000"
     inkscape:connector-curvature="0" />
</svg>
