<?xml version="1.0" encoding="UTF-8" standalone="no"?>
<!-- Created with Inkscape (http://www.inkscape.org/) -->

<svg
   xmlns:dc="http://purl.org/dc/elements/1.1/"
   xmlns:cc="http://creativecommons.org/ns#"
   xmlns:rdf="http://www.w3.org/1999/02/22-rdf-syntax-ns#"
   xmlns:svg="http://www.w3.org/2000/svg"
   xmlns="http://www.w3.org/2000/svg"
   xmlns:sodipodi="http://sodipodi.sourceforge.net/DTD/sodipodi-0.dtd"
   xmlns:inkscape="http://www.inkscape.org/namespaces/inkscape"
   version="1.1"
   width="83.398537"
   height="89.46624"
   id="svg1"
   inkscape:version="0.48.5 r10040"
   sodipodi:docname="white_bishop.svg">
  <sodipodi:namedview
     pagecolor="#ffffff"
     bordercolor="#666666"
     borderopacity="1"
     objecttolerance="10"
     gridtolerance="10"
     guidetolerance="10"
     inkscape:pageopacity="0"
     inkscape:pageshadow="2"
     inkscape:window-width="1234"
     inkscape:window-height="734"
     id="namedview18"
     showgrid="false"
     inkscape:zoom="2.6378665"
     inkscape:cx="71.950579"
     inkscape:cy="44.733091"
     inkscape:window-x="0"
     inkscape:window-y="22"
     inkscape:window-maximized="0"
     inkscape:current-layer="svg1" />
  <metadata
     id="metadata3092">
    <rdf:RDF>
      <cc:Work
         rdf:about="">
        <dc:title />
        <dc:description />
        <dc:subject>
          <rdf:Bag>
            <rdf:li />
            <rdf:li>game</rdf:li>
            <rdf:li>chess</rdf:li>
            <rdf:li>symbols</rdf:li>
            <rdf:li>board</rdf:li>
            <rdf:li>recreation</rdf:li>
            <rdf:li>fonts</rdf:li>
          </rdf:Bag>
        </dc:subject>
        <dc:publisher>
          <cc:Agent
             rdf:about="http://www.openclipart.org">
            <dc:title>Igor Krizanovskij</dc:title>
          </cc:Agent>
        </dc:publisher>
        <dc:creator>
          <cc:Agent>
            <dc:title>Igor Krizanovskij</dc:title>
          </cc:Agent>
        </dc:creator>
        <dc:rights>
          <cc:Agent>
            <dc:title>Igor Krizanovskij</dc:title>
          </cc:Agent>
        </dc:rights>
        <dc:date />
        <dc:format>image/svg+xml</dc:format>
        <dc:type
           rdf:resource="http://purl.org/dc/dcmitype/StillImage" />
        <cc:license
           rdf:resource="http://web.resource.org/cc/PublicDomain" />
        <dc:language>en</dc:language>
      </cc:Work>
      <cc:License
         rdf:about="http://web.resource.org/cc/PublicDomain">
        <cc:permits
           rdf:resource="http://web.resource.org/cc/Reproduction" />
        <cc:permits
           rdf:resource="http://web.resource.org/cc/Distribution" />
        <cc:permits
           rdf:resource="http://web.resource.org/cc/DerivativeWorks" />
      </cc:License>
    </rdf:RDF>
  </metadata>
  <defs
     id="defs3" />
  <g
     transform="translate(-571.36244,-212.65269)"
     id="layer1">
    <path
       d="m 111.54247,124.04562 c 0,1.54922 -1.07583,2.32381 -3.22749,2.32381 -2.40987,0 -3.6148,-0.77459 -3.6148,-2.32381 0,-7.14352 -2.36684,-12.95302 -7.100493,-17.42847 -4.217264,-3.78694 -8.305429,-5.6804 -12.264491,-5.6804 -5.852529,0 -9.510361,2.3238 -10.973493,6.9714 l -0.516399,3.4857 0,0.2582 c 0,3.44265 2.538964,8.21936 7.616894,14.33008 1.377065,1.54921 2.538964,2.75413 3.485698,3.61481 1.377064,1.11885 3.65783,1.67828 6.842295,1.67828 3.356595,0 8.778799,-0.6455 16.266579,-1.93649 7.57387,1.29099 13.0391,1.93649 16.39569,1.93649 3.27053,0 5.55129,-0.55943 6.84231,-1.67828 3.61479,-3.18448 6.62712,-7.05747 9.03697,-11.619 1.37708,-2.58201 2.06561,-4.69063 2.06561,-6.32589 0,-5.4222 -2.45291,-8.82184 -7.3587,-10.19889 -1.291,-0.34427 -2.66806,-0.51641 -4.13119,-0.51641 -3.95905,0 -8.00419,1.93649 -12.1354,5.80951 -4.81972,4.30333 -7.22959,10.06978 -7.22959,17.29936 m 28.01468,-12.39357 c 0,3.44265 -2.36682,7.48778 -7.1005,12.13538 l -3.35659,2.84022 -1.291,0.77458 c -1.63527,0.2582 -3.3566,0.3873 -5.16399,0.3873 -5.33613,0 -8.0042,-1.07584 -8.0042,-3.2275 0.17213,-6.62712 2.15167,-11.79113 5.9386,-15.49197 3.27052,-3.27055 6.62713,-4.90581 10.06978,-4.90581 4.3894,0 7.18658,1.59224 8.39149,4.7767 l 0.51641,2.7111 m -12.26448,32.79137 c 0,-2.23774 -6.3259,-3.3566 -18.97769,-3.3566 -3.44266,0 -6.49803,0.12909 -9.166092,0.3873 l -3.098402,0.2582 c -4.647595,0.60247 -6.971394,1.46312 -6.971394,2.58199 0,1.291 1.1619,1.9365 3.485696,1.9365 l 15.621092,-1.291 15.492,1.291 c 2.40984,0 3.61479,-0.60246 3.61479,-1.80739 m 7.22959,3.09839 c -0.17214,5.85254 -8.95093,8.7788 -26.33638,8.7788 -17.213322,0 -25.949084,-2.92626 -26.207283,-8.7788 -0.08607,-5.50826 -0.903698,-10.41405 -2.452898,-14.71738 -0.946732,-2.32379 -2.75413,-5.29309 -5.422196,-8.90789 -3.356596,-4.56154 -5.034896,-8.60666 -5.034896,-12.1354 0,-5.50826 2.366833,-9.76855 7.100495,-12.780887 2.668064,-1.72133 5.637361,-2.58199 8.907893,-2.58199 4.475462,0 8.735761,1.63527 12.780892,4.905787 0,-3.959057 0.387301,-6.670157 1.161901,-8.133277 0.602463,-1.63528 2.581992,-3.61482 5.938592,-5.93861 l 0,-2.9693 -5.293092,-3.2275 0,-4.6476 4.776692,0 1.5492,-4.77668 4.38939,0 1.6783,4.77668 4.64759,0 0,4.6476 -5.16399,3.2275 0,2.9693 c 3.27053,2.40986 5.29309,4.47546 6.06769,6.1968 l 0.9037,3.74388 c 0.0861,1.0328 0.17214,2.40988 0.2582,4.131207 4.04513,-3.270517 8.21937,-4.905787 12.52271,-4.905787 5.76645,0 10.24192,2.19469 13.42638,6.584087 1.80741,2.582 2.7111,5.50826 2.7111,8.77879 0,3.52874 -1.6783,7.61689 -5.0349,12.26448 l -2.9693,4.13122 c -3.18445,4.81972 -4.81971,11.27472 -4.90579,19.36497 M 76.814601,111.65205 c 0,-3.61479 1.807399,-5.93859 5.422195,-6.97139 1.0328,-0.34428 2.108634,-0.51641 3.227499,-0.51641 3.614797,0 7.057461,1.63526 10.327991,4.90581 3.700865,3.78692 5.637364,8.95092 5.809494,15.49197 0.0861,1.89347 -1.893465,2.96931 -5.938594,3.2275 -0.602463,0 -1.247964,0 -1.936499,0 -1.721331,0 -3.485695,-0.1291 -5.293095,-0.3873 -2.840197,-1.37707 -5.680395,-4.08815 -8.520592,-8.13329 -2.0656,-3.01233 -3.098399,-5.55129 -3.098399,-7.61689"
       id="text1061"
       style="font-size:12px;font-style:normal;font-weight:normal;fill:#000000;fill-opacity:1;stroke:none;font-family:Bitstream Vera Sans" />
    <path
       d="m 254.42788,142.89421 c 0,1.37707 0.98976,2.0656 2.9693,2.0656 l 8.90789,-0.6455 c -1.1e-4,0 2.58189,-0.12911 7.746,-0.3873 l 1.9365,0 15.10468,0.77461 3.0984,0.25819 c 1.9794,0 2.9692,-0.68853 2.9693,-2.0656 -10e-5,-2.49592 -5.76658,-3.87299 -17.2994,-4.13119 l -4.00209,0 c -9.72564,0 -16.22356,0.73158 -19.49409,2.19469 -1.29099,0.51641 -1.93649,1.16191 -1.93649,1.9365 M 238.29039,88.930453 c -1.63528,0 -2.66806,0.81765 -3.0984,2.45291 -0.0861,0.2582 -0.12911,0.51639 -0.12911,0.77461 0,1.63526 0.81765,2.66806 2.45291,3.09838 0.25819,0.08607 0.51639,0.12911 0.7746,0.12911 2.06559,0 3.09839,-1.07584 3.09839,-3.22749 0,-2.15168 -1.0328,-3.22752 -3.09839,-3.22752 m 16.91207,-8.13329 c -2.23772,0 -3.35657,1.07584 -3.35657,3.2275 0,2.15168 1.11885,3.2275 3.35657,3.2275 2.06561,0 3.09841,-1.07582 3.09841,-3.2275 0,-2.15166 -1.0328,-3.2275 -3.09841,-3.2275 m 41.18288,0 c -1.46324,0 -2.45301,0.73158 -2.96929,2.1947 l -0.12911,1.0328 c -1e-4,2.15168 1.0327,3.2275 3.0984,3.2275 2.15155,0 3.22739,-1.07582 3.22749,-3.2275 -10e-5,-2.15166 -1.07594,-3.2275 -3.22749,-3.2275 m 16.78299,8.13329 c -2.06572,0 -3.0985,1.07584 -3.09839,3.22752 -1.1e-4,2.15165 1.03267,3.22749 3.09839,3.22749 2.15156,0 3.22738,-1.07584 3.22751,-3.22749 -1.3e-4,-1.63526 -0.81775,-2.66807 -2.45291,-3.09841 -0.2583,-0.08607 -0.51651,-0.12911 -0.7746,-0.12911 m -9.2952,61.709767 c -1.1e-4,2.40986 -4.43253,4.08816 -13.29727,5.0349 l -12.52271,0.77458 -2.3238,0 c -10.50022,0 -18.50432,-0.90369 -24.01257,-2.71108 -2.66807,-0.77461 -4.0021,-1.80741 -4.0021,-3.0984 0,-2.49593 0.68853,-5.33614 2.0656,-8.5206 0.94673,-1.89347 1.42011,-3.22751 1.42011,-4.00209 0,-1.63526 -1.97954,-4.81975 -5.93861,-9.55339 -2.15166,-2.49594 -3.39962,-4.21728 -3.74389,-5.16402 0,-0.51639 -0.2582,-1.67829 -0.77461,-3.48568 l -1.6783,-6.455 c -1.11885,-4.21727 -1.85042,-8.69271 -2.19469,-13.42639 -3.95906,-1.635257 -5.93859,-4.260287 -5.93859,-7.875077 0,-3.09841 1.42008,-5.2931 4.26029,-6.58409 0.94673,-0.43035 1.97953,-0.64552 3.0984,-0.64552 2.84019,0 4.94883,1.29101 6.32589,3.87301 0.60248,1.11885 0.90371,2.23773 0.90371,3.3566 l -0.6455,4.90579 c 0,3.872987 2.75411,8.606657 8.26239,14.200987 0.43032,-3.52873 0.6455,-7.22959 0.6455,-11.10261 0,-5.766447 -1.0328,-9.424277 -3.0984,-10.973467 -0.17213,-0.17215 -0.34428,-0.30123 -0.51639,-0.3873 -1.54921,-0.94674 -2.3238,-2.62503 -2.3238,-5.0349 0,-3.18446 1.46311,-5.37917 4.38938,-6.5841 0.94675,-0.43033 1.93651,-0.6455 2.96929,-0.6455 3.01234,0 5.16401,1.37708 6.45501,4.13119 0.51639,0.94675 0.77448,1.97953 0.7746,3.09841 l -0.90371,5.55129 c 0,4.81974 2.36673,12.178407 7.10051,22.076087 1.80728,-8.09027 2.711,-14.287047 2.7111,-18.590387 -10e-5,-3.61479 -0.64562,-6.92836 -1.93649,-9.94068 -0.51652,-1.11888 -0.77471,-1.97954 -0.77461,-2.58201 -1e-4,-3.18447 1.41998,-5.37916 4.26029,-6.58411 0.94662,-0.43032 1.93639,-0.6455 2.9693,-0.6455 3.01223,0 5.12084,1.42011 6.32589,4.26032 0.43022,0.94673 0.6454,1.93649 0.6455,2.96929 -1e-4,0.17213 -0.73167,2.4529 -2.19469,6.8423 -0.34439,1.11885 -0.51651,3.01233 -0.51641,5.68039 -10e-5,4.30334 0.90359,10.500117 2.7111,18.590387 4.64749,-9.81161 6.9713,-17.170297 6.9714,-22.076087 l -0.7746,-5.42218 0,-0.12911 c -1.2e-4,-3.18446 1.46303,-5.37917 4.3894,-6.5841 0.94662,-0.43033 1.93639,-0.6455 2.96929,-0.6455 3.01223,0 5.16389,1.37708 6.455,4.13119 0.51629,0.94675 0.77449,1.97953 0.77459,3.09841 -1e-4,2.40987 -0.77471,4.1312 -2.3238,5.16398 -2.40997,1.54922 -3.61489,5.33614 -3.61479,11.360797 -10e-5,3.78694 0.21505,7.44477 0.6455,10.9735 5.50814,-5.59433 8.26228,-10.328 8.26239,-14.200987 l -0.6455,-4.90579 c -1e-4,-3.01234 1.37697,-5.16401 4.13121,-6.45501 0.94662,-0.51639 1.97942,-0.7746 3.09839,-0.7746 3.0983,0 5.29299,1.37706 6.58409,4.1312 l 0.7746,2.45291 0,0.6455 c -10e-5,3.44264 -1.97964,6.06767 -5.93859,7.875077 -0.51651,5.9386 -1.97964,13.21123 -4.3894,21.81788 -0.17223,0.68854 -0.25831,1.20493 -0.2582,1.54919 -1.1e-4,0.60247 -0.64561,1.59224 -1.9365,2.96931 l -1.54919,1.93649 c -4.13131,4.73367 -6.19691,8.0042 -6.19681,9.81161 -10e-5,0.51639 1.0327,3.18446 3.09841,8.00419 0.34417,1.72132 0.51628,3.2275 0.51639,4.5185 M 275.85846,76.795073 c -1.63538,0 -2.66818,0.81764 -3.09841,2.4529 -0.0862,0.2582 -0.12919,0.51639 -0.12908,0.77459 -1.1e-4,1.63527 0.81751,2.66807 2.45288,3.09841 0.25809,0.08607 0.51631,0.12911 0.77461,0.12911 2.0655,0 3.09828,-1.07584 3.0984,-3.22752 -1.2e-4,-1.54919 -0.73167,-2.582 -2.19471,-3.09839 -0.2583,-0.08606 -0.55953,-0.1291 -0.90369,-0.1291 m 23.23798,50.348967 c -10e-5,-2.75414 -7.7461,-4.13122 -23.23798,-4.13122 -15.57806,0 -23.36708,1.42011 -23.36708,4.26032 0,1.20492 1.11885,1.80739 3.35658,1.80739 2.58202,0 5.80951,-0.21516 9.68251,-0.6455 l 8.39149,-0.25819 2.06561,0 c 2.40974,0 6.97126,0.21515 13.68458,0.6455 l 6.32589,0.25819 c 2.0655,0 3.0983,-0.6455 3.0984,-1.93649"
       id="path1742"
       style="font-size:12px;font-style:normal;font-weight:normal;fill:#000000;fill-opacity:1;stroke:none;font-family:Bitstream Vera Sans" />
    <path
       d="m 414.87076,156.32061 -2.4529,-2.4529 0,-9.16609 13.03908,-12.90999 0,-25.69087 -10.06977,-9.940697 0,-11.4899 3.61479,-3.6148 9.16609,0 2.32379,2.19472 0,3.22749 4.90579,0 0,-3.22749 2.1947,-2.19472 14.33009,0 2.19471,2.19472 0,3.22749 4.9058,0 0,-3.22749 2.19469,-2.19472 9.29519,0 3.6148,3.6148 0,11.4899 -10.06978,9.940697 0,25.69087 13.03907,12.90999 0,9.16609 -2.58199,2.4529 -59.64415,0 m 15.23378,-27.49827 0,4.3894 29.30569,0 0,-4.3894 -29.30569,0 m 0,-23.23799 0,4.3894 29.30569,0 0,-4.3894 -29.30569,0"
       id="path1734"
       style="font-size:12px;font-style:normal;font-weight:normal;fill:#000000;fill-opacity:1;stroke:none;font-family:Bitstream Vera Sans" />
    <path
       d="m 605.39403,126.49854 c -4.38951,0 -6.58422,0.68853 -6.5841,2.0656 -1.2e-4,1.20492 1.93639,1.9365 5.80949,2.19469 l 7.10051,0 c 8.60652,0 12.90986,-0.73158 12.90998,-2.19469 -1.2e-4,-1.37707 -2.19481,-2.0656 -6.58409,-2.0656 l -12.65179,0 m 0,-8.00421 c -3.78704,0 -5.89568,0.43035 -6.3259,1.291 -0.17224,0.17215 -0.25832,0.43034 -0.2582,0.77461 -1.2e-4,0.94673 0.90359,1.50616 2.71108,1.6783 2.23765,0.25819 5.63727,0.3873 10.19892,0.3873 4.56142,0 8.00407,-0.12911 10.32797,-0.3873 1.72123,-0.17214 2.58189,-0.73157 2.58201,-1.6783 -1.2e-4,-1.37707 -2.19481,-2.06561 -6.58409,-2.06561 l -12.65179,0 m 24.01257,5.55129 2.58199,9.9407 c -1e-4,3.01234 -3.05547,4.7767 -9.16609,5.29309 4.47536,1.72134 8.6496,2.58202 12.52269,2.58202 0.51631,0 3.05526,-0.12911 7.61689,-0.38731 3.78684,0 6.88523,1.97954 9.2952,5.93861 0.34416,0.68852 0.77451,1.46311 1.291,2.32379 l -4.64759,7.10048 c -1.37718,1.72134 -2.84031,2.84021 -4.38939,3.3566 -0.34439,-1.80738 -3.09851,-2.92625 -8.26239,-3.3566 l -3.09841,-0.25819 c -10.5863,-0.86066 -17.72984,-3.14142 -21.43057,-6.84229 -3.35671,3.52872 -8.47768,5.55129 -15.3629,6.06768 -1.5492,0.17215 -3.57176,0.43034 -6.0677,0.77461 -6.28287,0.51639 -9.9407,1.4201 -10.97348,2.7111 -0.17214,0.25819 -0.30125,0.55943 -0.38731,0.90369 -2.23771,-0.94673 -4.34636,-3.0984 -6.32589,-6.45498 -0.77461,-1.37707 -1.6783,-2.7111 -2.7111,-4.0021 2.3238,-4.30333 4.81972,-6.88532 7.48778,-7.746 0.94676,-0.34427 1.97954,-0.5164 3.09841,-0.5164 0,0 2.53896,0.12909 7.6169,0.38731 3.95905,0 8.13328,-0.86068 12.52268,-2.58202 -6.11072,-0.51639 -9.16608,-2.28075 -9.16608,-5.29309 0,-0.25819 0.68853,-2.45288 2.0656,-6.58409 0.43032,-1.37707 0.6455,-2.32381 0.6455,-2.8402 -5.25007,-6.36892 -7.87509,-12.00629 -7.87509,-16.91208 0,-5.6804 2.79715,-10.844387 8.39148,-15.491977 4.99176,-4.21729 8.60656,-6.45501 10.84439,-6.7132 -1.89357,-2.3238 -2.8403,-4.73368 -2.8402,-7.2296 -10e-5,-4.04513 2.02247,-6.54105 6.06771,-7.4878 0.94662,-0.2581 1.93639,-0.38718 2.9693,-0.38729 4.3032,1.1e-4 7.10037,1.59224 8.39147,4.77669 l 0.6455,2.7111 0,0.3873 c -10e-5,2.40986 -0.94684,4.81972 -2.84019,7.2296 1.63516,0.43033 4.08805,1.76437 7.3587,4.0021 7.91802,5.50824 11.87709,11.575947 11.87719,18.203077 -10e-5,4.99186 -2.58212,10.45708 -7.746,16.39567 m -15.36288,-12.00627 0,-5.93859 4.51849,0 0,-4.90582 -4.51849,0 0,-5.551287 -4.64759,0 0,5.551287 -4.51851,0 0,4.90582 4.51851,0 0,5.93859 4.64759,0 m -2.32379,-36.406167 c -1.72145,0 -2.79729,0.77458 -3.22752,2.3238 l -0.12908,0.77458 c -1.1e-4,1.63527 0.86055,2.66807 2.58199,3.09841 0.25809,0.08607 0.51629,0.12909 0.77461,0.12909 2.15154,0 3.22738,-1.07582 3.22749,-3.2275 -1.1e-4,-2.0656 -1.07595,-3.09838 -3.22749,-3.09838"
       id="path1731"
       style="font-size:12px;font-style:normal;font-weight:normal;fill:#000000;fill-opacity:1;stroke:none;font-family:Bitstream Vera Sans" />
    <path
       d="m 758.73642,110.36105 c 2.15165,0 4.43242,-1.24798 6.84228,-3.7439 1.291,-1.29099 1.9365,-2.40987 1.9365,-3.3566 0,-1.11888 -1.0328,-1.67831 -3.0984,-1.67831 -2.40985,0 -4.43242,1.07584 -6.06768,3.2275 -0.86069,1.03281 -1.291,2.10864 -1.291,3.22752 0,1.54919 0.55942,2.32379 1.6783,2.32379 m -2.19471,-28.272877 c 0.17214,0 0.60246,-0.04304 1.291,-0.12911 3.87301,0 8.00419,1.29102 12.39359,3.87301 0.51639,0.34427 0.77461,0.51639 0.77461,0.51639 2.49592,-4.04513 4.38938,-6.06769 5.68038,-6.06769 2.75413,1.5492 4.56155,3.2275 5.4222,5.03489 0.43034,0.86068 1.07584,2.66806 1.9365,5.4222 0.68853,-0.17215 1.37706,-0.25819 2.0656,-0.25819 7.22959,0 14.11491,4.43242 20.65599,13.297287 7.83206,10.24193 11.74809,24.18469 11.74809,41.82835 0,3.95907 -0.17213,7.53082 -0.51639,10.7153 l -54.48018,0 c 0.17215,-5.76647 2.28076,-11.23169 6.3259,-16.3957 0.43034,-0.68853 1.0328,-1.46312 1.8074,-2.32379 3.18447,-4.04512 5.12096,-7.14352 5.8095,-9.2952 0.34426,-1.11885 0.60246,-2.28076 0.7746,-3.48569 -5.6804,2.23773 -9.9407,5.5513 -12.7809,9.9407 -1.291,2.15165 -2.71108,4.3894 -4.2603,6.71319 -0.43034,0.68854 -1.07584,1.03281 -1.93649,1.03281 -2.15166,0 -3.22749,-1.33403 -3.22749,-4.0021 -0.86069,1.11886 -1.85045,1.6783 -2.9693,1.6783 0,0 -0.86068,-0.21518 -2.582,-0.6455 -3.70086,-0.94675 -6.32589,-2.58201 -7.87511,-4.90581 -0.51639,-0.77459 -1.07582,-1.80739 -1.6783,-3.09838 0.60248,-3.70088 3.57178,-11.05957 8.90791,-22.0761 3.873,-7.91813 6.28287,-13.598527 7.2296,-17.041177 0.0861,-0.7746 0.12909,-1.89345 0.12909,-3.3566 0,-1.20493 -0.21517,-3.52872 -0.6455,-6.97139 m -7.74599,45.314057 c -2.0656,0 -3.44267,0.90369 -4.1312,2.7111 -0.17213,0.43033 -0.2582,0.86066 -0.2582,1.291 0,0.34426 0.12909,0.7746 0.3873,1.29099 2.23773,0 3.6148,-0.94673 4.13119,-2.84018 0.0861,-0.2582 0.12911,-0.55945 0.12911,-0.9037 0,-0.17214 -0.0861,-0.68853 -0.2582,-1.54921 m 63.38804,19.88139 0,-4.77669 c 0,-14.02887 -3.57175,-25.51875 -10.71527,-34.46967 -6.19682,-7.74601 -11.83418,-11.618997 -16.91209,-11.618997 0,0 -0.51641,-0.08607 -1.54921,-0.2582 -0.17213,0.08606 -0.30124,0.17213 -0.38731,0.2582 -1.11885,0 -1.67828,0.47336 -1.67828,1.42008 0,0.34428 0.2582,0.77461 0.77459,1.29102 4.64759,0.43032 9.72553,3.743877 15.23379,9.940697 6.97139,8.09024 10.4571,19.79531 10.4571,35.11514 0,0 0,0.25822 0,0.77461 0,3.78694 0.81762,5.68041 2.45288,5.68041 1.37708,0 2.15169,-1.11888 2.3238,-3.3566"
       id="path1726"
       style="font-size:12px;font-style:normal;font-weight:normal;fill:#000000;fill-opacity:1;stroke:none;font-family:Bitstream Vera Sans" />
    <path
       d="m 920.08308,156.32061 c -0.086,-1.0328 -0.12908,-3.05537 -0.12908,-6.0677 0,-10.84439 3.35661,-18.89162 10.06978,-24.14167 1.97954,-1.63527 4.3893,-3.14143 7.22961,-4.5185 -3.3566,-1.0328 -5.63736,-3.57176 -6.8423,-7.61689 -0.34427,-1.291 -0.51639,-2.62503 -0.51639,-4.0021 0,-5.76647 2.96929,-9.85462 8.90788,-12.264497 -1.54931,-2.58199 -2.3239,-5.03489 -2.32379,-7.35869 -1.1e-4,-3.87299 1.89336,-6.75622 5.6804,-8.64969 1.72121,-0.86067 3.57165,-1.29101 5.55129,-1.29101 4.30323,0 7.48768,1.67831 9.55339,5.03491 0.94662,1.46313 1.42,3.0984 1.4201,4.90579 -1e-4,2.49594 -0.73167,4.94883 -2.19471,7.35869 3.18438,1.291 5.46514,3.012337 6.8423,5.163987 1.37696,2.32381 2.06548,4.69063 2.06562,7.10051 -1.4e-4,4.47545 -1.54933,7.87509 -4.64761,10.19888 -0.77471,0.68854 -1.63538,1.16191 -2.58201,1.42011 7.91802,4.04513 13.039,9.33823 15.3629,15.87929 1.20482,3.61479 1.80728,7.87508 1.80738,12.78088 -10e-5,3.01233 -0.0431,5.0349 -0.12908,6.0677 l -55.12568,0"
       id="path1722"
       style="font-size:12px;font-style:normal;font-weight:normal;fill:#000000;fill-opacity:1;stroke:none;font-family:Bitstream Vera Sans" />
    <path
       d="m 109.65676,299.14963 c -17.12725,0 -25.819982,-2.88321 -26.078178,-8.64969 -0.430339,-7.91812 -1.764372,-13.89975 -4.002098,-17.94489 -0.94673,-1.63526 -2.280763,-3.61479 -4.002099,-5.93859 -2.926261,-3.87299 -4.561526,-7.14352 -4.905793,-9.81159 -0.08607,-0.68853 -0.129108,-1.42011 -0.129108,-2.19471 0,-5.42218 2.280763,-9.68247 6.842288,-12.78088 1.118874,-0.68854 2.280763,-1.24797 3.485709,-1.6783 4.561524,-1.63527 9.080014,-1.37707 13.555488,0.77461 1.63526,0.77458 3.270524,1.80738 4.905788,3.09838 l 0.12911,0.12911 c 0,-1.80741 0.08605,-3.7439 0.2582,-5.80948 0,-0.60249 0.301223,-1.42011 0.903693,-2.45292 1.37707,-2.23772 3.01233,-4.0021 4.90579,-5.29309 0.34426,-0.17214 0.68853,-0.38731 1.0328,-0.6455 l 0,-3.0984 -5.29309,-3.09839 0,-4.64759 4.7767,0 1.6783,-4.90582 3.87299,0 1.6783,4.90582 4.7767,0 0,4.64759 -5.29309,3.09839 0,3.0984 c 4.47546,2.84019 6.75622,5.68039 6.84228,8.52059 0.17213,1.72133 0.2582,3.6148 0.2582,5.6804 l 0.12911,-0.12911 c 5.42219,-4.56153 11.10259,-6.02465 17.04118,-4.38938 1.54921,0.43031 3.01234,1.07581 4.3894,1.9365 4.81972,2.92625 7.27263,7.27262 7.35871,13.03907 0,3.44268 -1.72134,7.53084 -5.16401,12.26449 -2.8402,3.95906 -4.60456,6.84231 -5.2931,8.6497 -1.46311,3.87298 -2.3238,8.86485 -2.58199,14.97559 -0.17212,5.76648 -8.86486,8.64969 -26.07818,8.64969 m 0,-43.50667 3.7439,-5.93859 c 0.60247,-1.291 1.07582,-2.49593 1.42008,-3.6148 0.17215,-0.60246 0.25822,-1.85042 0.25822,-3.7439 0,-5.07791 -1.76437,-7.6169 -5.29312,-7.6169 -3.70085,0 -5.55129,2.53899 -5.55129,7.6169 0,1.89348 0.0861,3.14144 0.2582,3.7439 0.68853,2.3238 2.15167,5.07794 4.3894,8.26239 0.51641,0.60247 0.77461,1.0328 0.77461,1.291 m 34.46968,-0.2582 c 0,-3.87299 -1.29099,-6.84228 -3.87302,-8.90788 -2.15165,-1.80741 -4.6906,-2.7111 -7.61689,-2.7111 -3.70084,0 -7.70295,1.89345 -12.00628,5.68039 -5.07793,4.3894 -7.96116,10.328 -8.6497,17.81579 0,0.60246 1.59223,1.29099 4.77669,2.0656 3.70087,0.68854 9.98373,1.0328 18.84859,1.0328 l 5.8095,-7.746 c 1.8074,-2.75412 2.71111,-5.16399 2.71111,-7.2296 m -34.46968,17.42849 c -2.15168,0.94675 -8.69274,1.76437 -19.623193,2.4529 -1.635264,0.0861 -2.969298,0.17213 -4.002099,0.2582 0.860679,3.27053 1.420106,6.88532 1.678301,10.84439 5.938593,-1.89347 13.254251,-2.84019 21.946991,-2.84019 8.86485,0 16.18052,0.94672 21.94699,2.84019 0.2582,-4.30333 0.81763,-7.91813 1.6783,-10.84439 l -19.10681,-1.5492 c -1.63526,-0.25819 -3.14142,-0.64549 -4.51848,-1.1619 M 75.187082,255.38476 c 0,2.66808 2.108639,6.71321 6.325897,12.13539 1.032801,1.291 1.764372,2.23775 2.194691,2.84021 l 2.323798,0 c 8.86486,0 15.319862,-0.60246 19.364992,-1.80741 1.291,-0.34426 1.9365,-0.77458 1.9365,-1.29099 -0.68854,-7.48779 -3.57177,-13.42639 -8.649693,-17.81579 -4.217262,-3.78694 -8.21936,-5.68039 -12.006301,-5.68039 -1.204924,0 -2.495922,0.25819 -3.872991,0.7746 -3.442672,0.86066 -5.76647,3.14142 -6.971395,6.84229 l -0.645498,3.4857 0,0.51639 m 34.469678,39.11728 c 8.09025,0 13.6846,-0.51641 16.78299,-1.54919 0.7746,-0.25822 1.1619,-0.55945 1.1619,-0.90372 0,-2.23773 -5.93859,-3.35659 -17.81581,-3.35659 -4.56152,0 -8.99394,0.30125 -13.297264,0.90371 -3.184481,0.51639 -4.776708,1.33403 -4.776708,2.45288 0,1.291 5.077935,2.10865 15.233792,2.45291 1.0328,0 1.93649,0 2.7111,0"
       id="path1721"
       style="font-size:12px;font-style:normal;font-weight:normal;fill:#000000;fill-opacity:1;stroke:none;font-family:Bitstream Vera Sans" />
    <path
       d="m 274.61825,270.10217 5.6804,0 c 1.29089,0 2.84008,0.043 4.64759,0.12908 l 12.78089,0.77461 0.12911,0 c 1.54909,0 2.32367,-0.21518 2.32379,-0.6455 l 0,-0.51641 c -1.2e-4,-2.58199 -5.72353,-4.26029 -17.1703,-5.03488 -2.06571,-0.17215 -3.87309,-0.25821 -5.42218,-0.25821 -8.43464,0 -14.93256,0.86067 -19.49409,2.58201 -2.0656,0.77458 -3.0984,1.67828 -3.0984,2.71108 l 0,0.51641 c 0,0.43032 0.77461,0.6455 2.3238,0.6455 l 17.29939,-0.90369 m 23.88348,5.80948 c -6.79937,-0.86066 -13.77077,-1.291 -20.91418,-1.291 -7.48791,0 -14.45921,0.43034 -20.91419,1.291 1.0328,0.86066 1.54919,2.53896 1.54919,5.03491 0,1.63526 -0.25819,2.62502 -0.77458,2.96929 5.16398,-0.94673 11.87709,-1.4201 20.13958,-1.4201 8.26228,0 14.97547,0.47337 20.13958,1.4201 -0.51651,-0.34427 -0.77471,-1.33403 -0.77461,-2.96929 -10e-5,-2.49595 0.51631,-4.17425 1.54921,-5.03491 m -20.91418,11.10259 c -4.38951,0 -9.29531,0.21517 -14.7174,0.64551 -4.21726,0.34425 -6.3259,1.33404 -6.3259,2.9693 0,2.15165 7.01443,3.22749 21.0433,3.22749 14.02874,0 21.04317,-1.07584 21.04327,-3.22749 -1e-4,-0.68854 -0.55953,-1.33404 -1.6783,-1.93651 -3.27063,-1.11886 -9.72563,-1.6783 -19.36497,-1.6783 m 0,-67.51925 c -2.15179,0 -3.22762,1.0328 -3.22749,3.0984 -1.3e-4,2.23773 1.0757,3.3566 3.22749,3.3566 2.06548,0 3.09828,-1.11887 3.09838,-3.3566 -10e-5,-2.0656 -1.0329,-3.0984 -3.09838,-3.0984 m 0,-3.74388 c 3.09828,0 5.24995,1.42008 6.45498,4.26029 l 0.6455,2.58199 0,0.38731 c -1.1e-4,0.51639 -0.34437,1.59223 -1.0328,3.22749 -1.20503,3.52874 -1.80749,6.58409 -1.80739,9.16608 -1e-4,4.21728 0.94663,10.45711 2.84019,18.7195 4.64749,-9.81158 6.9713,-17.21332 6.9714,-22.20519 l -0.77459,-5.55129 c -1.3e-4,-3.01233 1.33391,-5.164 4.0021,-6.455 0.9466,-0.51639 1.9794,-0.77458 3.09838,-0.77458 3.0983,0 5.29299,1.37704 6.58409,4.13118 0.51631,1.0328 0.77451,2.0656 0.77461,3.0984 -10e-5,2.23773 -0.77471,4.0021 -2.3238,5.2931 -2.3239,2.3238 -3.52885,6.11072 -3.61479,11.36078 -1e-4,2.23775 0.21505,5.85254 0.6455,10.8444 5.59422,-5.76646 8.39137,-10.4571 8.39149,-14.07189 l -0.64549,-5.03491 c -1.3e-4,-2.84019 1.29087,-4.94882 3.87299,-6.32587 1.03269,-0.60248 2.10851,-0.90372 3.2275,-0.90372 2.92615,0 5.12084,1.33404 6.58408,4.0021 l 0.77461,2.45291 0,0.77458 c -10e-5,3.52875 -1.97964,6.19682 -5.93859,8.0042 -0.17225,3.70087 -1.59235,10.97349 -4.26029,21.81789 -0.17225,0.51641 -0.30136,0.98976 -0.38731,1.4201 -1.1e-4,1.20493 -1.37717,3.27053 -4.13121,6.19679 -3.70097,3.70087 -5.55139,6.58409 -5.55129,8.6497 -10e-5,0.94672 1.0327,3.48571 3.0984,7.61689 0.34418,0.77461 0.51629,1.93649 0.51639,3.48571 l 0,0.90369 c -0.0862,0.25819 -0.12921,0.55943 -0.12908,0.90369 l 0,0.12911 0.12908,0.12909 c -1e-4,3.0984 -8.30553,4.81974 -24.91628,5.164 -1.11895,0 -2.19479,0 -3.22749,0 l -5.42218,-0.1291 -0.12911,0 c -8.09037,-0.2582 -14.24403,-0.94673 -18.46128,-2.06561 -2.66807,-0.77458 -4.0021,-1.76434 -4.0021,-2.96929 0.0861,-0.0861 0.0861,-0.60246 0,-1.54919 -0.0861,-0.17213 -0.0861,-0.34427 0,-0.51639 0,-1.97954 0.6455,-4.2603 1.9365,-6.84231 1.0328,-2.06558 1.54919,-3.48568 1.54919,-4.26029 0,-1.37708 -0.73156,-3.01234 -2.19469,-4.9058 l -6.32591,-7.22959 c -0.68852,-0.94673 -1.0328,-1.85045 -1.0328,-2.7111 -2.66806,-10.93046 -4.17421,-18.03094 -4.51849,-21.30149 -0.0861,-0.68854 -0.1291,-1.33404 -0.1291,-1.9365 -3.95906,-1.80738 -5.93859,-4.47545 -5.93859,-8.0042 0,-2.84019 1.29099,-4.94882 3.87298,-6.32587 1.11887,-0.60248 2.23775,-0.90372 3.3566,-0.90372 3.01234,0 5.16401,1.37707 6.45502,4.13121 0.51639,0.94673 0.77458,1.97953 0.77458,3.09838 l -0.6455,5.03491 c 0,3.78693 2.75413,8.47756 8.26239,14.07189 0.43034,-3.78694 0.6455,-7.40173 0.6455,-10.8444 0,-4.73365 -0.55943,-7.8751 -1.67828,-9.42429 -0.43034,-0.60246 -1.07584,-1.29099 -1.93651,-2.0656 -1.5492,-1.0328 -2.3238,-2.75412 -2.3238,-5.16399 0,-3.01233 1.4201,-5.20702 4.26031,-6.58408 0.94673,-0.43035 1.97954,-0.6455 3.09838,-0.6455 3.01234,0 5.16401,1.37704 6.45501,4.13118 0.51628,0.94673 0.77448,1.97954 0.77458,3.0984 l -0.77458,5.42219 0,0.1291 c 0,4.90579 2.32367,12.30754 6.9714,22.20519 1.80728,-7.83205 2.71098,-14.0719 2.71108,-18.7195 -10e-5,-3.44265 -0.6456,-6.71318 -1.9365,-9.81158 -0.51649,-1.20493 -0.7747,-2.0656 -0.77458,-2.58199 -1.2e-4,-3.01234 1.37694,-5.16399 4.13118,-6.45501 0.94662,-0.51639 1.97942,-0.77458 3.09841,-0.77458 m 37.30987,15.87928 c -1.37718,0 -2.36694,0.68854 -2.9693,2.0656 -0.0862,0.34427 -0.12922,0.68852 -0.12911,1.03278 -1.1e-4,1.72134 0.77449,2.79718 2.3238,3.22752 0.25809,0.0861 0.51631,0.12909 0.77461,0.12909 2.15154,0 3.22738,-1.11886 3.22749,-3.35661 -1.1e-4,-2.06558 -1.07595,-3.09838 -3.22749,-3.09838 m -16.9121,-8.26239 c -1.46324,0 -2.453,0.73157 -2.96929,2.19469 l -0.12909,1.0328 c -1.2e-4,1.54919 0.73144,2.58199 2.19469,3.0984 0.25809,0.0861 0.55932,0.12909 0.90369,0.12909 2.23763,0 3.3565,-1.07582 3.3566,-3.22749 -1e-4,-2.15165 -1.11897,-3.22749 -3.3566,-3.22749 m -41.05377,0 c -2.15165,0 -3.22749,1.07584 -3.22749,3.22749 0,2.15167 1.07584,3.22749 3.22749,3.22749 2.06561,0 3.09841,-1.07582 3.09841,-3.22749 0,-2.15165 -1.0328,-3.22749 -3.09841,-3.22749 m -16.91209,8.26239 c -2.15165,0 -3.22749,1.0328 -3.22749,3.09838 0,2.23775 1.07584,3.35661 3.22749,3.35661 2.06561,0 3.09841,-1.11886 3.09841,-3.35661 0,-1.46311 -0.73157,-2.45288 -2.19469,-2.96929 -0.25822,-0.0861 -0.55944,-0.12909 -0.90372,-0.12909 m 37.56809,8.2624 c -1.20505,7.57385 -2.75425,13.03907 -4.6476,16.39567 l -1.93649,3.09841 0,0.12911 c -0.25832,-0.25822 -1.37718,-1.54922 -3.3566,-3.87302 -2.49605,-2.92626 -5.12098,-8.47755 -7.8751,-16.65387 0.17213,1.20492 0.2582,2.45289 0.2582,3.74388 0,4.04514 -0.73157,10.28497 -2.19471,18.7195 -4.64758,-2.75414 -9.16608,-7.14354 -13.55549,-13.16821 1.46314,7.40174 2.58202,12.2645 3.3566,14.5883 0.51641,1.72133 1.16191,2.7111 1.9365,2.96929 7.05746,-4.04511 16.39559,-6.06768 28.01469,-6.06768 11.70494,0 21.04317,2.02257 28.01466,6.06768 1.54909,-0.51639 3.27043,-6.36891 5.16401,-17.55759 -4.47557,6.19681 -8.95105,10.58622 -13.42639,13.16821 -1.46325,-7.48781 -2.1948,-13.38336 -2.19469,-17.68669 -1.1e-4,-1.11886 0.0859,-2.7111 0.25819,-4.77669 -1.72144,5.16399 -3.70097,9.76854 -5.93859,13.81368 -1.20505,1.80739 -2.53909,3.52873 -4.00211,5.16399 -0.68863,0.68853 -1.11897,1.20494 -1.29099,1.54922 l -2.84021,-5.03491 c -0.0862,-0.34426 -0.21526,-0.68853 -0.38728,-1.0328 -0.68864,-1.89346 -1.80751,-6.41196 -3.3566,-13.55548"
       id="path1715"
       style="font-size:12px;font-style:normal;font-weight:normal;fill:#000000;fill-opacity:1;stroke:none;font-family:Bitstream Vera Sans" />
    <path
       d="m 430.41352,249.05887 0,22.85068 29.43479,0 0,-22.85068 -29.43479,0 m -15.23379,50.09076 -2.45288,-2.4529 0,-8.90789 13.16819,-13.2973 0,-25.81997 -11.3608,-9.94069 0,-11.74809 3.74391,-3.61479 11.61898,0 2.19469,2.19469 0,3.3566 3.74391,0 0,-3.3566 2.1947,-2.19469 14.20098,0 2.19471,2.19469 0,3.3566 3.61479,0 0,-3.3566 2.32381,-2.19469 11.61899,0 3.74388,3.61479 0,11.74809 -11.36078,9.94069 0,25.81997 13.16818,13.2973 0,8.90789 -2.4529,2.4529 -59.90236,0 m 2.06562,-10.19888 0,5.03488 55.77114,0 0,-5.03488 -55.77114,0 m 12.65178,-12.78091 -8.5206,8.2624 47.50877,0 -8.52058,-8.2624 -30.46759,0 m 10.32801,-47.37966 0,3.3566 -1.93652,1.80741 -8.39149,0 -1.93649,-1.80741 0,-3.6148 -7.22961,0 -1.6783,1.80741 0,7.2296 8.7788,7.10048 34.59877,0 8.7788,-7.10048 0,-7.2296 -1.6783,-1.80741 -7.22959,0 0,3.6148 -1.93649,1.80741 -8.39151,0 -1.93649,-1.80741 0,-3.3566 -9.81158,0"
       id="path1705"
       style="font-size:12px;font-style:normal;font-weight:normal;fill:#000000;fill-opacity:1;stroke:none;font-family:Bitstream Vera Sans" />
    <path
       d="m 613.06171,264.16357 c -6.02477,0 -10.71541,-0.25821 -14.0719,-0.7746 0.60235,1.20492 0.90359,2.23772 0.90369,3.09838 -10e-5,1.29102 -0.2583,2.36684 -0.77458,3.22751 2.49582,-0.7746 7.14341,-1.16191 13.94279,-1.16191 6.79914,0 11.44675,0.38731 13.94277,1.16191 -0.5165,-0.86067 -0.77469,-1.93649 -0.77459,-3.22751 -10e-5,-1.03278 0.25809,-2.06558 0.77459,-3.09838 -4.04521,0.51639 -8.69282,0.7746 -13.94277,0.7746 m 0,-46.73416 c -1.80751,0 -3.05548,0.81761 -3.7439,2.45288 -0.17225,0.43033 -0.2583,0.86068 -0.2582,1.291 -10e-5,1.89347 0.94662,3.14144 2.84019,3.7439 0.34416,0.0861 0.73147,0.12911 1.16191,0.12911 1.9794,0 3.27043,-0.90372 3.87299,-2.7111 0.086,-0.34428 0.12898,-0.73158 0.12911,-1.16191 -1.3e-4,-1.72132 -0.86078,-2.88323 -2.58201,-3.48569 -0.5165,-0.17214 -0.98988,-0.25819 -1.42009,-0.25819 m 0,54.86744 c -3.27065,0 -7.48791,0.30124 -12.6518,0.9037 -1.46313,0.17215 -2.3238,0.98977 -2.58199,2.4529 0,1.0328 2.36671,1.6783 7.10048,1.9365 -0.43044,-0.0861 -0.2583,-0.12911 0.51641,-0.12911 0.77448,0 3.31345,0 7.6169,0 10.06967,0 15.10457,-0.60246 15.10469,-1.80739 -1.2e-4,-1.97952 -2.49605,-3.05536 -7.4878,-3.22749 l -3.7439,0 c -1.11897,0 -2.0657,-0.043 -2.84021,-0.12911 l -1.03278,0 m -0.12911,-11.87718 c 9.63936,0 15.53492,-0.90369 17.6867,-2.71111 1.46301,-1.11887 2.53885,-4.08816 3.22749,-8.90789 -0.43044,-4.30333 -3.22761,-8.43453 -8.39151,-12.3936 -4.81982,-3.78691 -9.03709,-5.89555 -12.65178,-6.32589 -3.35671,0.43034 -7.44486,2.53898 -12.2645,6.32589 -5.07792,3.95907 -7.83205,8.09027 -8.26239,12.3936 0.60248,4.47546 1.54921,7.31567 2.84021,8.52059 0.34426,0.34427 0.73157,0.6455 1.16189,0.90369 2.15168,1.46315 7.70286,2.19472 16.65389,2.19472 m -2.19469,-6.3259 0,-5.6804 -4.3894,0 0,-5.0349 4.3894,0 0,-5.55129 4.6476,0 0,5.55129 4.38938,0 0,5.0349 -4.38938,0 0,5.6804 -4.6476,0 m 2.06559,26.33637 c -0.77469,0 -3.05548,1.50618 -6.84229,4.51851 -2.66817,1.80739 -6.9714,2.88323 -12.90999,3.22749 -4.30333,0 -7.746,0.21516 -10.328,0.6455 -2.75411,0.60246 -4.13119,1.76437 -4.13119,3.48569 0.2582,1.72134 1.16189,2.58201 2.7111,2.58201 l 6.8423,-1.0328 c 4.47544,0 9.16608,-0.60246 14.07187,-1.80741 5.59422,-1.46312 9.20902,-3.78692 10.84441,-6.97139 2.32368,4.56155 8.34834,7.31566 18.07398,8.26239 -10e-5,0 1.11875,0.17215 3.3566,0.51641 2.23763,0 3.3565,0 3.3566,0 l 6.97139,1.0328 c 1.54909,0 2.45278,-0.86067 2.71108,-2.58201 -10e-5,-1.72132 -1.37717,-2.88323 -4.13118,-3.48569 l -13.81368,-1.0328 c -4.38951,-0.34427 -8.60677,-2.0656 -12.6518,-5.16398 -1.80751,-1.46315 -3.18458,-2.19472 -4.1312,-2.19472 m 0.25821,11.23169 c -3.3567,3.3566 -8.43464,5.4222 -15.23379,6.19681 -2.75414,0.25819 -7.57386,0.86066 -14.45921,1.80738 -1.80738,0.34428 -2.84018,1.16191 -3.09838,2.45291 -1.63526,-0.43033 -4.04514,-3.0984 -7.22959,-8.00419 -0.7746,-1.20493 -1.33403,-2.02257 -1.6783,-2.45291 2.84019,-5.42218 6.36892,-8.13328 10.58619,-8.13328 l 7.6169,0.3873 c 3.52873,0 7.65991,-0.81764 12.39357,-2.4529 -6.11071,-0.77459 -9.16608,-2.62503 -9.16608,-5.5513 l 2.58199,-9.81158 c 0,-0.0861 0,-0.17215 0,-0.25822 -5.16398,-5.68037 -7.74599,-11.01651 -7.74599,-16.00837 0,-5.6804 2.79716,-10.84439 8.39149,-15.49199 4.90569,-4.13121 8.52048,-6.3259 10.84439,-6.58411 -1.89356,-2.32378 -2.8403,-4.73364 -2.84019,-7.22959 -1.1e-4,-3.95907 1.97943,-6.45499 5.9386,-7.48779 0.94662,-0.25809 1.97942,-0.3872 3.0984,-0.38731 4.21715,1.1e-4 6.97127,1.59224 8.26239,4.77672 l 0.6455,2.7111 0,0.38728 c -10e-5,2.66806 -0.90382,5.07794 -2.7111,7.22959 2.32369,0.25821 5.98153,2.49594 10.9735,6.7132 5.50814,4.56152 8.26228,9.6825 8.26239,15.3629 -1.1e-4,4.81972 -2.58212,10.15585 -7.746,16.00837 -10e-5,1.20495 0.43023,2.92628 1.29099,5.16401 0.86056,2.75414 1.2909,4.3894 1.291,4.90579 -10e-5,2.92627 -3.05548,4.77671 -9.16609,5.5513 4.64749,1.63526 8.77868,2.4529 12.3936,2.4529 l 7.61689,-0.3873 c 4.21716,0 7.74589,2.7111 10.5862,8.13328 l -4.3894,6.7132 c -1.46325,1.89346 -2.96941,3.14144 -4.5185,3.7439 -0.34438,-1.72133 -2.84031,-2.79717 -7.4878,-3.22749 0.60235,0 -0.68864,-0.12911 -3.87299,-0.3873 -10.75844,-1.03281 -17.90196,-3.31356 -21.43058,-6.84231"
       id="path1700"
       style="font-size:12px;font-style:normal;font-weight:normal;fill:#000000;fill-opacity:1;stroke:none;font-family:Bitstream Vera Sans" />
    <path
       d="m 750.6539,268.68206 c 1.20493,0 1.8074,0.81763 1.8074,2.45289 0,2.15168 -1.07583,3.22751 -3.22751,3.22751 -0.86065,0 -1.29099,-0.68853 -1.29099,-2.06561 0,-2.40986 0.90369,-3.61479 2.7111,-3.61479 m 9.2952,-15.7502 c -1.20493,0 -1.80741,-0.73155 -1.80741,-2.19469 0,-2.3238 1.37707,-4.21725 4.13121,-5.6804 1.20492,-0.60246 2.32379,-0.90369 3.35659,-0.90369 1.80739,0 2.79715,0.60246 2.9693,1.80741 0,1.97953 -1.54921,3.87299 -4.6476,5.68037 -1.54921,0.86069 -2.88322,1.291 -4.00209,1.291 m 1.0328,-24.27077 c 0.34426,1.20493 0.51639,2.02258 0.51639,2.45289 0,0.25821 -0.12909,0.94673 -0.3873,2.0656 1.37706,0 3.27055,-0.68853 5.68039,-2.0656 -2.32379,-1.20492 -4.26029,-2.02257 -5.80948,-2.45289 m -15.3629,44.41037 c 0.51641,2.06558 1.89346,3.57177 4.1312,4.51849 0.86067,0.34427 1.6783,0.51639 2.45289,0.51639 l 0.25821,0 c 0.17213,0 1.11886,-0.51639 2.8402,-1.54919 0.51639,-0.34427 0.94673,-0.51639 1.291,-0.51639 l 0.51639,0 c 0.43033,0 0.64552,0.25819 0.64552,0.77458 l -0.77461,2.45291 c 0,0.7746 0.60246,1.16189 1.80739,1.16189 0.17214,0 1.24798,-1.50616 3.22751,-4.51849 3.78692,-5.85252 9.16608,-10.28496 16.13749,-13.29729 0.68852,-4.6476 2.40986,-8.73575 5.16398,-12.26449 0.68854,-0.94674 1.37707,-1.42009 2.0656,-1.42009 0.77461,0 1.16191,0.55943 1.16191,1.67828 0,0.25822 -0.7746,2.7111 -2.3238,7.3587 -0.60247,1.97953 -0.90371,3.44267 -0.90371,4.38941 0,0.25819 0.0861,0.81763 0.25822,1.6783 0,6.11071 -2.58202,12.52268 -7.746,19.23588 -3.44268,4.6476 -5.33613,8.34846 -5.68041,11.10258 l 42.60296,0 c 0.34428,-3.95906 0.51641,-6.88532 0.51641,-8.77878 0,-17.72973 -5.55128,-31.88769 -16.65389,-42.47387 -3.3566,-3.09841 -6.0677,-4.6476 -8.13328,-4.6476 l -7.746,0 c -0.68854,-0.34427 -1.37708,-2.06561 -2.0656,-5.16399 -0.51639,-2.49594 -1.16189,-4.04514 -1.9365,-4.6476 -1.03281,3.09839 -4.21726,5.50826 -9.55339,7.22959 -2.84019,0.86066 -4.81973,1.72134 -5.9386,2.582 -0.94673,3.01233 -3.7439,9.12307 -8.3915,18.33219 -4.56152,9.12305 -6.9714,14.54525 -7.22959,16.26659 m 72.29595,26.07817 -54.09286,0 c 0.34426,-5.93859 2.58199,-11.61898 6.71319,-17.04118 3.18447,-4.30334 5.07794,-6.92837 5.68041,-7.8751 1.20492,-1.89346 1.9365,-4.17422 2.19469,-6.84229 -5.59433,2.40985 -9.9407,5.85253 -13.03908,10.328 l -1.80741,2.9693 c -1.29099,2.06558 -2.10864,3.22749 -2.4529,3.48569 -0.51639,0.43033 -1.07582,0.6455 -1.6783,0.6455 -2.66805,0 -4.47546,-0.9037 -5.42218,-2.7111 -0.17215,-0.2582 -0.25821,-0.55943 -0.25821,-0.9037 -0.86067,0.43033 -1.72133,0.6455 -2.58201,0.6455 -4.13119,0 -7.40172,-2.582 -9.81158,-7.74601 0.68853,-3.78692 4.30333,-12.52268 10.84438,-26.20726 0.68854,-1.291 1.20495,-2.3238 1.54921,-3.0984 2.582,-5.76648 3.873,-10.11282 3.873,-13.0391 0,-0.43032 -0.25819,-2.84019 -0.77461,-7.22959 l 1.03281,0 c 4.64759,0 9.08003,1.46314 13.29728,4.3894 2.3238,-4.04514 4.26029,-6.0677 5.8095,-6.0677 2.75413,1.46314 4.64759,3.52874 5.68039,6.19681 l 1.42011,4.26029 c 0.86065,-0.17214 1.59223,-0.2582 2.19469,-0.2582 6.88534,0 13.6846,4.38939 20.39779,13.16819 7.83206,10.24192 11.74808,24.27077 11.74808,42.08657 0,4.04512 -0.17212,7.65991 -0.51639,10.84438"
       id="path1693"
       style="font-size:12px;font-style:normal;font-weight:normal;fill:#000000;fill-opacity:1;stroke:none;font-family:Bitstream Vera Sans" />
    <path
       d="m 972.16114,293.98563 c -1e-4,-9.03698 -2.453,-15.79321 -7.3587,-20.26867 -1.63536,-1.54921 -3.65793,-3.01234 -6.06768,-4.3894 -3.3567,-1.97953 -5.035,-3.78694 -5.0349,-5.4222 -10e-5,-0.86067 0.86055,-1.80739 2.58199,-2.84019 2.66796,-1.46314 4.26019,-3.18448 4.77671,-5.16402 0.17202,-0.77458 0.25809,-1.7213 0.25819,-2.84018 -10e-5,-3.95906 -2.02266,-7.05746 -6.0677,-9.29519 l -2.32379,-1.6783 c -0.43045,-0.43032 -0.64561,-0.9037 -0.6455,-1.42011 -1.1e-4,-1.46312 0.51628,-2.92626 1.54919,-4.38939 0.68843,-0.94672 1.0327,-2.0656 1.0328,-3.3566 -10e-5,-2.23771 -1.20503,-3.87298 -3.61479,-4.90579 -0.77471,-0.25821 -1.5493,-0.3873 -2.3238,-0.3873 -2.40998,0 -4.1313,1.07584 -5.164,3.22749 -0.34436,0.68854 -0.51651,1.37708 -0.51641,2.0656 -10e-5,0.77461 0.55935,2.23773 1.67831,4.38941 0.68843,1.20492 0.98966,2.3238 0.90372,3.35658 -1.4e-4,1.0328 -0.9899,2.0656 -2.96931,3.09841 -3.95918,2.32379 -5.93872,5.4222 -5.93859,9.29519 -1.3e-4,3.3566 1.67817,6.02467 5.03488,8.0042 1.63516,1.11885 2.4528,2.0656 2.45291,2.84019 -1.1e-4,1.63526 -1.67841,3.44267 -5.03491,5.4222 -6.19678,3.78692 -10.15585,8.3915 -11.87718,13.81369 -0.94673,3.01232 -1.4201,6.62713 -1.4201,10.84438 l 46.08866,0 m -50.60716,5.164 c -0.0861,-1.0328 -0.12911,-3.01232 -0.12911,-5.93859 0,-10.58618 3.09841,-18.50431 9.2952,-23.75437 2.0656,-1.72134 4.69053,-3.39964 7.87509,-5.0349 -3.27053,-1.0328 -5.46522,-3.52875 -6.58409,-7.48781 -0.43032,-1.291 -0.6455,-2.62503 -0.6455,-4.0021 0,-5.76645 2.92626,-9.89766 8.7788,-12.39357 -1.37717,-2.49595 -2.06571,-4.94883 -2.0656,-7.35871 -1.1e-4,-3.95906 1.93639,-6.88532 5.80948,-8.77878 1.63517,-0.77461 3.39954,-1.16191 5.2931,-1.16191 4.3893,0 7.61679,1.6783 9.6825,5.0349 0.94663,1.46314 1.42,3.0984 1.4201,4.90579 -10e-5,2.3238 -0.77471,4.77671 -2.3238,7.35871 5.93849,2.40986 8.90779,6.54105 8.9079,12.39357 -1.1e-4,4.56155 -1.67841,8.0042 -5.03491,10.328 -0.68863,0.51641 -1.46324,0.90371 -2.3238,1.16191 7.7459,3.95906 12.78079,8.99396 15.10471,15.10467 1.46302,3.78694 2.19459,8.34847 2.19469,13.6846 -10e-5,2.84019 -0.0431,4.81972 -0.12911,5.93859 l -55.12565,0"
       id="path1688"
       style="font-size:12px;font-style:normal;font-weight:normal;fill:#000000;fill-opacity:1;stroke:none;font-family:Bitstream Vera Sans" />
  </g>
  <path
     style="fill:#ffffff"
     d="m 32.028551,47.148053 c -5.929234,-0.623641 -8.531917,-2.184777 -9.777402,-5.864661 -1.580401,-4.66942 -1.092509,-7.995125 1.730604,-11.796632 4.170986,-5.616505 13.120363,-11.5896 17.410381,-11.620236 5.251635,-0.0375 16.520536,8.025857 19.531227,13.97539 1.432544,2.830907 1.482095,5.686927 0.163469,9.422094 -1.420705,4.024323 -3.294582,5.084199 -10.403438,5.884242 -3.853971,0.433733 -14.530343,0.43362 -18.654841,-1.97e-4 z m 12.020692,-8.518321 0,-2.843207 2.274566,0 2.274565,0 0,-2.653659 0,-2.65366 -2.274565,0 -2.274566,0 0,-2.65366 0,-2.653659 -2.464112,0 -2.464113,0 0,2.653659 0,2.65366 -2.085018,0 -2.085018,0 0,2.65366 0,2.653659 2.085018,0 2.085018,0 0,2.843207 0,2.843207 2.464113,0 2.464112,0 0,-2.843207 z"
     id="path2995"
     inkscape:connector-curvature="0" />
  <path
     style="fill:#ffffff"
     d="M 39.793964,11.710485 C 37.62572,10.494496 37.326907,7.9529639 39.139119,6.1407519 c 1.035657,-1.0356567 1.334685,-1.1351737 2.885669,-0.9603553 2.063016,0.2325318 3.104694,1.1497038 3.404573,2.9976426 0.441525,2.7207948 -3.111456,4.9479158 -5.635397,3.5324458 z"
     id="path2997"
     inkscape:connector-curvature="0" />
  <path
     style="fill:#ffffff"
     d="m 28.938317,64.240817 c -0.700693,-0.177491 -1.523512,-0.572235 -1.828487,-0.87721 -0.486602,-0.486603 -0.446654,-0.675407 0.326252,-1.541935 0.78056,-0.875109 1.333553,-1.036552 4.86124,-1.419204 5.965725,-0.647109 18.950968,-0.519005 21.464701,0.211757 1.840468,0.535038 2.79733,1.35991 2.79733,2.411462 0,0.887186 -4.029532,1.263379 -14.974222,1.397977 -6.255055,0.07693 -11.946122,-0.0054 -12.646814,-0.182847 z"
     id="path2999"
     inkscape:connector-curvature="0" />
  <path
     style="fill:#ffffff"
     d="M 8.2362061,81.290395 C 7.2164784,80.163609 7.3795412,78.621762 8.623322,77.630006 c 1.3113706,-1.04565 4.119127,-1.535278 10.595249,-1.847641 9.276949,-0.447457 13.166312,-1.545471 17.964797,-5.071681 4.414915,-3.244342 4.460473,-3.247724 8.192705,-0.608218 2.96653,2.097988 6.483266,3.844171 9.130807,4.533768 1.167542,0.304106 5.626126,0.824207 9.907965,1.155781 4.637509,0.359116 8.356867,0.831611 9.199162,1.168632 1.659026,0.663809 2.478427,1.95522 2.127575,3.353136 -0.414532,1.651622 -1.547993,1.881689 -5.885696,1.194665 -2.117248,-0.33534 -4.696795,-0.609708 -5.732325,-0.609708 -2.322851,0 -8.865134,-0.963013 -11.923792,-1.755161 -3.593984,-0.93079 -6.270597,-2.416647 -8.624393,-4.787623 -1.198886,-1.207635 -2.179792,-2.040832 -2.179792,-1.851548 0,0.189285 -0.725018,1.072944 -1.611151,1.963687 -3.104763,3.120918 -9.31927,5.325298 -17.107061,6.068135 -2.319344,0.221231 -6.178802,0.649398 -8.576573,0.951483 -5.4105568,0.681654 -5.0584125,0.693502 -5.8645929,-0.197318 z"
     id="path3001"
     inkscape:connector-curvature="0" />
  <path
     style="fill:#ffffff"
     d="m 28.48239,55.221566 c 0.140615,-0.785435 0.1313,-2.023981 -0.0207,-2.752325 -0.151999,-0.728343 -0.242929,-1.357693 -0.202066,-1.398557 0.04086,-0.04086 1.946969,0.105017 4.235789,0.324178 3.974622,0.380581 18.327509,0.173438 21.499568,-0.310286 l 1.416118,-0.215951 -0.421061,1.207856 c -0.231583,0.664321 -0.318848,1.953577 -0.193922,2.865013 l 0.227138,1.657157 -1.980384,-0.265292 C 50.36924,55.9752 32.595351,55.995005 30.167251,56.358849 l -1.940524,0.290782 0.255663,-1.428065 0,0 z"
     id="path3003"
     inkscape:connector-curvature="0" />
</svg>
