<?xml version="1.0" encoding="UTF-8" standalone="no"?>
<!-- Created with Inkscape (http://www.inkscape.org/) -->

<svg
   xmlns:dc="http://purl.org/dc/elements/1.1/"
   xmlns:cc="http://creativecommons.org/ns#"
   xmlns:rdf="http://www.w3.org/1999/02/22-rdf-syntax-ns#"
   xmlns:svg="http://www.w3.org/2000/svg"
   xmlns="http://www.w3.org/2000/svg"
   xmlns:sodipodi="http://sodipodi.sourceforge.net/DTD/sodipodi-0.dtd"
   xmlns:inkscape="http://www.inkscape.org/namespaces/inkscape"
   version="1.1"
   width="77.072632"
   height="76.298042"
   id="svg1"
   inkscape:version="0.48.5 r10040"
   sodipodi:docname="white_knight.svg">
  <sodipodi:namedview
     pagecolor="#ffffff"
     bordercolor="#666666"
     borderopacity="1"
     objecttolerance="10"
     gridtolerance="10"
     guidetolerance="10"
     inkscape:pageopacity="0"
     inkscape:pageshadow="2"
     inkscape:window-width="928"
     inkscape:window-height="755"
     id="namedview7"
     showgrid="false"
     inkscape:zoom="3.0931331"
     inkscape:cx="38.536316"
     inkscape:cy="25.21715"
     inkscape:window-x="0"
     inkscape:window-y="22"
     inkscape:window-maximized="0"
     inkscape:current-layer="svg1" />
  <metadata
     id="metadata3">
    <rdf:RDF>
      <cc:Work
         rdf:about="">
        <dc:title />
        <dc:description />
        <dc:subject>
          <rdf:Bag>
            <rdf:li />
            <rdf:li>game</rdf:li>
            <rdf:li>chess</rdf:li>
            <rdf:li>symbols</rdf:li>
            <rdf:li>board</rdf:li>
            <rdf:li>recreation</rdf:li>
            <rdf:li>fonts</rdf:li>
          </rdf:Bag>
        </dc:subject>
        <dc:publisher>
          <cc:Agent
             rdf:about="http://www.openclipart.org">
            <dc:title>Igor Krizanovskij</dc:title>
          </cc:Agent>
        </dc:publisher>
        <dc:creator>
          <cc:Agent>
            <dc:title>Igor Krizanovskij</dc:title>
          </cc:Agent>
        </dc:creator>
        <dc:rights>
          <cc:Agent>
            <dc:title>Igor Krizanovskij</dc:title>
          </cc:Agent>
        </dc:rights>
        <dc:date />
        <dc:format>image/svg+xml</dc:format>
        <dc:type
           rdf:resource="http://purl.org/dc/dcmitype/StillImage" />
        <cc:license
           rdf:resource="http://web.resource.org/cc/PublicDomain" />
        <dc:language>en</dc:language>
      </cc:Work>
      <cc:License
         rdf:about="http://web.resource.org/cc/PublicDomain">
        <cc:permits
           rdf:resource="http://web.resource.org/cc/Reproduction" />
        <cc:permits
           rdf:resource="http://web.resource.org/cc/Distribution" />
        <cc:permits
           rdf:resource="http://web.resource.org/cc/DerivativeWorks" />
      </cc:License>
    </rdf:RDF>
  </metadata>
  <defs
     id="defs3" />
  <g
     transform="translate(-741.35871,-222.85159)"
     id="layer1">
    <path
       d="m 750.6539,268.68206 c 1.20493,0 1.8074,0.81763 1.8074,2.45289 0,2.15168 -1.07583,3.22751 -3.22751,3.22751 -0.86065,0 -1.29099,-0.68853 -1.29099,-2.06561 0,-2.40986 0.90369,-3.61479 2.7111,-3.61479 m 9.2952,-15.7502 c -1.20493,0 -1.80741,-0.73155 -1.80741,-2.19469 0,-2.3238 1.37707,-4.21725 4.13121,-5.6804 1.20492,-0.60246 2.32379,-0.90369 3.35659,-0.90369 1.80739,0 2.79715,0.60246 2.9693,1.80741 0,1.97953 -1.54921,3.87299 -4.6476,5.68037 -1.54921,0.86069 -2.88322,1.291 -4.00209,1.291 m 1.0328,-24.27077 c 0.34426,1.20493 0.51639,2.02258 0.51639,2.45289 0,0.25821 -0.12909,0.94673 -0.3873,2.0656 1.37706,0 3.27055,-0.68853 5.68039,-2.0656 -2.32379,-1.20492 -4.26029,-2.02257 -5.80948,-2.45289 m -15.3629,44.41037 c 0.51641,2.06558 1.89346,3.57177 4.1312,4.51849 0.86067,0.34427 1.6783,0.51639 2.45289,0.51639 l 0.25821,0 c 0.17213,0 1.11886,-0.51639 2.8402,-1.54919 0.51639,-0.34427 0.94673,-0.51639 1.291,-0.51639 l 0.51639,0 c 0.43033,0 0.64552,0.25819 0.64552,0.77458 l -0.77461,2.45291 c 0,0.7746 0.60246,1.16189 1.80739,1.16189 0.17214,0 1.24798,-1.50616 3.22751,-4.51849 3.78692,-5.85252 9.16608,-10.28496 16.13749,-13.29729 0.68852,-4.6476 2.40986,-8.73575 5.16398,-12.26449 0.68854,-0.94674 1.37707,-1.42009 2.0656,-1.42009 0.77461,0 1.16191,0.55943 1.16191,1.67828 0,0.25822 -0.7746,2.7111 -2.3238,7.3587 -0.60247,1.97953 -0.90371,3.44267 -0.90371,4.38941 0,0.25819 0.0861,0.81763 0.25822,1.6783 0,6.11071 -2.58202,12.52268 -7.746,19.23588 -3.44268,4.6476 -5.33613,8.34846 -5.68041,11.10258 l 42.60296,0 c 0.34428,-3.95906 0.51641,-6.88532 0.51641,-8.77878 0,-17.72973 -5.55128,-31.88769 -16.65389,-42.47387 -3.3566,-3.09841 -6.0677,-4.6476 -8.13328,-4.6476 l -7.746,0 c -0.68854,-0.34427 -1.37708,-2.06561 -2.0656,-5.16399 -0.51639,-2.49594 -1.16189,-4.04514 -1.9365,-4.6476 -1.03281,3.09839 -4.21726,5.50826 -9.55339,7.22959 -2.84019,0.86066 -4.81973,1.72134 -5.9386,2.582 -0.94673,3.01233 -3.7439,9.12307 -8.3915,18.33219 -4.56152,9.12305 -6.9714,14.54525 -7.22959,16.26659 m 72.29595,26.07817 -54.09286,0 c 0.34426,-5.93859 2.58199,-11.61898 6.71319,-17.04118 3.18447,-4.30334 5.07794,-6.92837 5.68041,-7.8751 1.20492,-1.89346 1.9365,-4.17422 2.19469,-6.84229 -5.59433,2.40985 -9.9407,5.85253 -13.03908,10.328 l -1.80741,2.9693 c -1.29099,2.06558 -2.10864,3.22749 -2.4529,3.48569 -0.51639,0.43033 -1.07582,0.6455 -1.6783,0.6455 -2.66805,0 -4.47546,-0.9037 -5.42218,-2.7111 -0.17215,-0.2582 -0.25821,-0.55943 -0.25821,-0.9037 -0.86067,0.43033 -1.72133,0.6455 -2.58201,0.6455 -4.13119,0 -7.40172,-2.582 -9.81158,-7.74601 0.68853,-3.78692 4.30333,-12.52268 10.84438,-26.20726 0.68854,-1.291 1.20495,-2.3238 1.54921,-3.0984 2.582,-5.76648 3.873,-10.11282 3.873,-13.0391 0,-0.43032 -0.25819,-2.84019 -0.77461,-7.22959 l 1.03281,0 c 4.64759,0 9.08003,1.46314 13.29728,4.3894 2.3238,-4.04514 4.26029,-6.0677 5.8095,-6.0677 2.75413,1.46314 4.64759,3.52874 5.68039,6.19681 l 1.42011,4.26029 c 0.86065,-0.17214 1.59223,-0.2582 2.19469,-0.2582 6.88534,0 13.6846,4.38939 20.39779,13.16819 7.83206,10.24192 11.74808,24.27077 11.74808,42.08657 0,4.04512 -0.17212,7.65991 -0.51639,10.84438"
       id="path1693"
       style="font-size:12px;font-style:normal;font-weight:normal;fill:#000000;fill-opacity:1;stroke:none;font-family:Bitstream Vera Sans" />
  </g>
  <path
     style="fill:#ffffff"
     d="m 29.28831,70.106909 c 0.515768,-1.871488 1.997581,-4.617493 4.359063,-8.077952 4.214653,-6.176052 4.697887,-6.95339 5.946722,-9.565925 1.787934,-3.740331 2.575789,-7.098528 2.667942,-11.37201 0.06959,-3.227214 0.223113,-4.030691 1.659198,-8.683702 1.702616,-5.516578 1.70734,-6.093993 0.05145,-6.2913 -0.627218,-0.07474 -1.110482,0.160128 -1.745521,0.848319 -2.017708,2.186581 -4.409707,7.153177 -5.206853,10.81119 l -0.404732,1.857256 -2.159448,1.0846 c -6.328858,3.178715 -10.083457,6.600488 -14.86329,13.545734 -1.192296,1.732441 -2.313294,3.148678 -2.491107,3.147194 -0.177813,-0.0016 -0.537422,-0.138119 -0.799131,-0.303627 -0.404537,-0.255835 -0.415343,-0.527094 -0.07212,-1.810385 0.3049,-1.139986 0.312764,-1.61906 0.03213,-1.957206 -0.528519,-0.636824 -0.759234,-0.586098 -3.373425,0.741707 L 10.547402,55.27025 9.0062853,54.681695 C 7.1656688,53.978754 5.1544605,52.245899 4.7145317,50.983917 4.2710285,49.711682 5.5660618,46.595386 12.369968,32.562294 15.4202,26.271175 18.387346,19.915359 18.963627,18.438258 c 0.998988,-2.560568 1.123062,-2.723298 2.664267,-3.494322 0.889066,-0.444777 3.051074,-1.338889 4.804462,-1.986918 4.541188,-1.678361 7.443578,-3.6782294 8.602802,-5.9276921 0.582514,-1.1303613 0.906561,-0.5774022 2.111176,3.6025451 1.584432,5.497895 0.951469,5.000733 6.542023,5.138442 4.437789,0.109313 4.89034,0.178875 6.440732,0.990006 3.646154,1.907586 8.773476,7.135062 12.448853,12.692019 4.548411,6.876931 7.302124,14.591418 8.535918,23.913264 0.491634,3.714496 0.644864,12.753871 0.272054,16.04907 l -0.21548,1.9046 -21.108122,0 -21.10812,0 0.334118,-1.212363 0,0 z M 10.265297,50.805363 c 0.686891,-0.636588 0.855451,-1.086701 0.855451,-2.284331 0,-2.145003 -0.414014,-2.742207 -1.9010483,-2.742207 -0.8151473,0 -1.426766,0.215539 -1.8084721,0.637322 -0.7410553,0.818856 -1.0976445,2.787885 -0.7481759,4.131306 0.2483426,0.954676 0.386368,1.050715 1.5100603,1.050715 0.8646689,0 1.4940932,-0.238513 2.092185,-0.792805 z M 21.926713,29.268247 c 1.774139,-0.833943 4.240273,-2.95506 4.88477,-4.201379 1.287352,-2.489464 0.110686,-4.04258 -2.875131,-3.794973 -2.941295,0.243915 -5.632365,1.969181 -6.708514,4.300881 -0.742463,1.608702 -0.771138,3.02218 -0.08129,4.007076 0.460623,0.657631 0.711988,0.731354 1.926182,0.56493 0.768034,-0.105271 2.052326,-0.499711 2.853983,-0.876535 l 0,0 z"
     id="path2984"
     inkscape:connector-curvature="0" />
  <path
     style="fill:#ffffff"
     d=""
     id="path2986"
     inkscape:connector-curvature="0" />
</svg>
